<svg width="425" height="893" viewBox="0 0 425 893" fill="none" xmlns="http://www.w3.org/2000/svg">
<path d="M178.459 576.8H256.859C272.259 576.8 283.226 573.767 289.759 567.7C296.759 561.167 300.259 550.667 300.259 536.2V495.6C300.259 481.133 296.759 470.867 289.759 464.8C282.759 458.733 271.326 455.7 255.459 455.7H178.459C173.326 455.7 170.759 458.267 170.759 463.4V569.1C170.759 574.233 173.326 576.8 178.459 576.8ZM178.459 383.6H249.859C264.793 383.6 275.759 380.567 282.759 374.5C289.759 367.967 293.259 357.467 293.259 343V315.7C293.259 301.233 289.759 290.967 282.759 284.9C276.226 278.367 265.493 275.1 250.559 275.1H178.459C173.326 275.1 170.759 277.667 170.759 282.8V375.9C170.759 381.033 173.326 383.6 178.459 383.6ZM81.8594 636.3V215.6C81.8594 205.8 86.7594 200.9 96.5594 200.9H264.559C301.426 200.9 329.893 210.7 349.959 230.3C370.026 249.9 380.059 277.9 380.059 314.3V343C380.059 382.667 361.626 408.333 324.759 420C343.426 422.8 358.359 430.5 369.559 443.1C380.759 455.233 386.359 472.733 386.359 495.6V537.6C386.359 574 376.326 602 356.259 621.6C336.193 641.2 307.959 651 271.559 651H96.5594C86.7594 651 81.8594 646.1 81.8594 636.3Z" fill="#0085FF" fill-opacity="0.12"/>
<path d="M177.459 576.8H255.859C271.259 576.8 282.226 573.767 288.759 567.7C295.759 561.167 299.259 550.667 299.259 536.2V495.6C299.259 481.133 295.759 470.867 288.759 464.8C281.759 458.733 270.326 455.7 254.459 455.7H177.459C172.326 455.7 169.759 458.267 169.759 463.4V569.1C169.759 574.233 172.326 576.8 177.459 576.8ZM177.459 383.6H248.859C263.793 383.6 274.759 380.567 281.759 374.5C288.759 367.967 292.259 357.467 292.259 343V315.7C292.259 301.233 288.759 290.967 281.759 284.9C275.226 278.367 264.493 275.1 249.559 275.1H177.459C172.326 275.1 169.759 277.667 169.759 282.8V375.9C169.759 381.033 172.326 383.6 177.459 383.6ZM80.8594 636.3V215.6C80.8594 205.8 85.7594 200.9 95.5594 200.9H263.559C300.426 200.9 328.893 210.7 348.959 230.3C369.026 249.9 379.059 277.9 379.059 314.3V343C379.059 382.667 360.626 408.333 323.759 420C342.426 422.8 357.359 430.5 368.559 443.1C379.759 455.233 385.359 472.733 385.359 495.6V537.6C385.359 574 375.326 602 355.259 621.6C335.193 641.2 306.959 651 270.559 651H95.5594C85.7594 651 80.8594 646.1 80.8594 636.3Z" fill="#0085FF" fill-opacity="0.12"/>
<path d="M176.459 576.8H254.859C270.259 576.8 281.226 573.767 287.759 567.7C294.759 561.167 298.259 550.667 298.259 536.2V495.6C298.259 481.133 294.759 470.867 287.759 464.8C280.759 458.733 269.326 455.7 253.459 455.7H176.459C171.326 455.7 168.759 458.267 168.759 463.4V569.1C168.759 574.233 171.326 576.8 176.459 576.8ZM176.459 383.6H247.859C262.793 383.6 273.759 380.567 280.759 374.5C287.759 367.967 291.259 357.467 291.259 343V315.7C291.259 301.233 287.759 290.967 280.759 284.9C274.226 278.367 263.493 275.1 248.559 275.1H176.459C171.326 275.1 168.759 277.667 168.759 282.8V375.9C168.759 381.033 171.326 383.6 176.459 383.6ZM79.8594 636.3V215.6C79.8594 205.8 84.7594 200.9 94.5594 200.9H262.559C299.426 200.9 327.893 210.7 347.959 230.3C368.026 249.9 378.059 277.9 378.059 314.3V343C378.059 382.667 359.626 408.333 322.759 420C341.426 422.8 356.359 430.5 367.559 443.1C378.759 455.233 384.359 472.733 384.359 495.6V537.6C384.359 574 374.326 602 354.259 621.6C334.193 641.2 305.959 651 269.559 651H94.5594C84.7594 651 79.8594 646.1 79.8594 636.3Z" fill="#0085FF" fill-opacity="0.12"/>
<path d="M175.459 576.8H253.859C269.259 576.8 280.226 573.767 286.759 567.7C293.759 561.167 297.259 550.667 297.259 536.2V495.6C297.259 481.133 293.759 470.867 286.759 464.8C279.759 458.733 268.326 455.7 252.459 455.7H175.459C170.326 455.7 167.759 458.267 167.759 463.4V569.1C167.759 574.233 170.326 576.8 175.459 576.8ZM175.459 383.6H246.859C261.793 383.6 272.759 380.567 279.759 374.5C286.759 367.967 290.259 357.467 290.259 343V315.7C290.259 301.233 286.759 290.967 279.759 284.9C273.226 278.367 262.493 275.1 247.559 275.1H175.459C170.326 275.1 167.759 277.667 167.759 282.8V375.9C167.759 381.033 170.326 383.6 175.459 383.6ZM78.8594 636.3V215.6C78.8594 205.8 83.7594 200.9 93.5594 200.9H261.559C298.426 200.9 326.893 210.7 346.959 230.3C367.026 249.9 377.059 277.9 377.059 314.3V343C377.059 382.667 358.626 408.333 321.759 420C340.426 422.8 355.359 430.5 366.559 443.1C377.759 455.233 383.359 472.733 383.359 495.6V537.6C383.359 574 373.326 602 353.259 621.6C333.193 641.2 304.959 651 268.559 651H93.5594C83.7594 651 78.8594 646.1 78.8594 636.3Z" fill="#0085FF" fill-opacity="0.12"/>
<path d="M174.459 576.8H252.859C268.259 576.8 279.226 573.767 285.759 567.7C292.759 561.167 296.259 550.667 296.259 536.2V495.6C296.259 481.133 292.759 470.867 285.759 464.8C278.759 458.733 267.326 455.7 251.459 455.7H174.459C169.326 455.7 166.759 458.267 166.759 463.4V569.1C166.759 574.233 169.326 576.8 174.459 576.8ZM174.459 383.6H245.859C260.793 383.6 271.759 380.567 278.759 374.5C285.759 367.967 289.259 357.467 289.259 343V315.7C289.259 301.233 285.759 290.967 278.759 284.9C272.226 278.367 261.493 275.1 246.559 275.1H174.459C169.326 275.1 166.759 277.667 166.759 282.8V375.9C166.759 381.033 169.326 383.6 174.459 383.6ZM77.8594 636.3V215.6C77.8594 205.8 82.7594 200.9 92.5594 200.9H260.559C297.426 200.9 325.893 210.7 345.959 230.3C366.026 249.9 376.059 277.9 376.059 314.3V343C376.059 382.667 357.626 408.333 320.759 420C339.426 422.8 354.359 430.5 365.559 443.1C376.759 455.233 382.359 472.733 382.359 495.6V537.6C382.359 574 372.326 602 352.259 621.6C332.193 641.2 303.959 651 267.559 651H92.5594C82.7594 651 77.8594 646.1 77.8594 636.3Z" fill="#0085FF" fill-opacity="0.12"/>
<path d="M173.459 576.8H251.859C267.259 576.8 278.226 573.767 284.759 567.7C291.759 561.167 295.259 550.667 295.259 536.2V495.6C295.259 481.133 291.759 470.867 284.759 464.8C277.759 458.733 266.326 455.7 250.459 455.7H173.459C168.326 455.7 165.759 458.267 165.759 463.4V569.1C165.759 574.233 168.326 576.8 173.459 576.8ZM173.459 383.6H244.859C259.793 383.6 270.759 380.567 277.759 374.5C284.759 367.967 288.259 357.467 288.259 343V315.7C288.259 301.233 284.759 290.967 277.759 284.9C271.226 278.367 260.493 275.1 245.559 275.1H173.459C168.326 275.1 165.759 277.667 165.759 282.8V375.9C165.759 381.033 168.326 383.6 173.459 383.6ZM76.8594 636.3V215.6C76.8594 205.8 81.7594 200.9 91.5594 200.9H259.559C296.426 200.9 324.893 210.7 344.959 230.3C365.026 249.9 375.059 277.9 375.059 314.3V343C375.059 382.667 356.626 408.333 319.759 420C338.426 422.8 353.359 430.5 364.559 443.1C375.759 455.233 381.359 472.733 381.359 495.6V537.6C381.359 574 371.326 602 351.259 621.6C331.193 641.2 302.959 651 266.559 651H91.5594C81.7594 651 76.8594 646.1 76.8594 636.3Z" fill="#0085FF" fill-opacity="0.12"/>
<path d="M172.459 576.8H250.859C266.259 576.8 277.226 573.767 283.759 567.7C290.759 561.167 294.259 550.667 294.259 536.2V495.6C294.259 481.133 290.759 470.867 283.759 464.8C276.759 458.733 265.326 455.7 249.459 455.7H172.459C167.326 455.7 164.759 458.267 164.759 463.4V569.1C164.759 574.233 167.326 576.8 172.459 576.8ZM172.459 383.6H243.859C258.793 383.6 269.759 380.567 276.759 374.5C283.759 367.967 287.259 357.467 287.259 343V315.7C287.259 301.233 283.759 290.967 276.759 284.9C270.226 278.367 259.493 275.1 244.559 275.1H172.459C167.326 275.1 164.759 277.667 164.759 282.8V375.9C164.759 381.033 167.326 383.6 172.459 383.6ZM75.8594 636.3V215.6C75.8594 205.8 80.7594 200.9 90.5594 200.9H258.559C295.426 200.9 323.893 210.7 343.959 230.3C364.026 249.9 374.059 277.9 374.059 314.3V343C374.059 382.667 355.626 408.333 318.759 420C337.426 422.8 352.359 430.5 363.559 443.1C374.759 455.233 380.359 472.733 380.359 495.6V537.6C380.359 574 370.326 602 350.259 621.6C330.193 641.2 301.959 651 265.559 651H90.5594C80.7594 651 75.8594 646.1 75.8594 636.3Z" fill="#0085FF" fill-opacity="0.12"/>
<path d="M171.459 576.8H249.859C265.259 576.8 276.226 573.767 282.759 567.7C289.759 561.167 293.259 550.667 293.259 536.2V495.6C293.259 481.133 289.759 470.867 282.759 464.8C275.759 458.733 264.326 455.7 248.459 455.7H171.459C166.326 455.7 163.759 458.267 163.759 463.4V569.1C163.759 574.233 166.326 576.8 171.459 576.8ZM171.459 383.6H242.859C257.793 383.6 268.759 380.567 275.759 374.5C282.759 367.967 286.259 357.467 286.259 343V315.7C286.259 301.233 282.759 290.967 275.759 284.9C269.226 278.367 258.493 275.1 243.559 275.1H171.459C166.326 275.1 163.759 277.667 163.759 282.8V375.9C163.759 381.033 166.326 383.6 171.459 383.6ZM74.8594 636.3V215.6C74.8594 205.8 79.7594 200.9 89.5594 200.9H257.559C294.426 200.9 322.893 210.7 342.959 230.3C363.026 249.9 373.059 277.9 373.059 314.3V343C373.059 382.667 354.626 408.333 317.759 420C336.426 422.8 351.359 430.5 362.559 443.1C373.759 455.233 379.359 472.733 379.359 495.6V537.6C379.359 574 369.326 602 349.259 621.6C329.193 641.2 300.959 651 264.559 651H89.5594C79.7594 651 74.8594 646.1 74.8594 636.3Z" fill="#0085FF" fill-opacity="0.12"/>
<path d="M170.459 576.8H248.859C264.259 576.8 275.226 573.767 281.759 567.7C288.759 561.167 292.259 550.667 292.259 536.2V495.6C292.259 481.133 288.759 470.867 281.759 464.8C274.759 458.733 263.326 455.7 247.459 455.7H170.459C165.326 455.7 162.759 458.267 162.759 463.4V569.1C162.759 574.233 165.326 576.8 170.459 576.8ZM170.459 383.6H241.859C256.793 383.6 267.759 380.567 274.759 374.5C281.759 367.967 285.259 357.467 285.259 343V315.7C285.259 301.233 281.759 290.967 274.759 284.9C268.226 278.367 257.493 275.1 242.559 275.1H170.459C165.326 275.1 162.759 277.667 162.759 282.8V375.9C162.759 381.033 165.326 383.6 170.459 383.6ZM73.8594 636.3V215.6C73.8594 205.8 78.7594 200.9 88.5594 200.9H256.559C293.426 200.9 321.893 210.7 341.959 230.3C362.026 249.9 372.059 277.9 372.059 314.3V343C372.059 382.667 353.626 408.333 316.759 420C335.426 422.8 350.359 430.5 361.559 443.1C372.759 455.233 378.359 472.733 378.359 495.6V537.6C378.359 574 368.326 602 348.259 621.6C328.193 641.2 299.959 651 263.559 651H88.5594C78.7594 651 73.8594 646.1 73.8594 636.3Z" fill="#0085FF"/>
<rect x="17" y="201" width="88" height="450" rx="10" fill="#0085FF"/>
<rect x="22" y="201" width="88" height="450" rx="10" fill="#0085FF"/>
<rect x="21" y="201" width="88" height="450" rx="10" fill="#0085FF"/>
<rect x="20" y="201" width="88" height="450" rx="10" fill="#0085FF"/>
<rect x="19" y="201" width="88" height="450" rx="10" fill="#0085FF"/>
<rect x="18" y="201" width="88" height="450" rx="10" fill="#0085FF"/>
<rect x="105" y="188" width="16" height="470" rx="8" fill="white"/>
<g filter="url(#filter0_i)">
<path d="M89 594.56V605.024C89 610.08 87.656 613.984 84.968 616.736C82.28 619.488 78.408 620.864 73.352 620.864H42.92C37.864 620.864 33.992 619.488 31.304 616.736C28.616 613.984 27.272 610.08 27.272 605.024V594.56C27.272 589.568 28.648 585.696 31.4 582.944C34.088 580.128 37.928 578.72 42.92 578.72H47.432C48.84 578.72 49.544 579.424 49.544 580.832V588.896C49.544 590.24 48.84 590.912 47.432 590.912H43.496C41.448 590.912 40.008 591.36 39.176 592.256C38.28 593.088 37.832 594.528 37.832 596.576V603.104C37.832 605.088 38.28 606.528 39.176 607.424C40.008 608.256 41.448 608.672 43.496 608.672H72.776C74.824 608.672 76.296 608.256 77.192 607.424C78.024 606.528 78.44 605.088 78.44 603.104V596.576C78.44 594.528 78.024 593.088 77.192 592.256C76.296 591.36 74.824 590.912 72.776 590.912H68.84C67.432 590.912 66.728 590.24 66.728 588.896V580.832C66.728 579.424 67.432 578.72 68.84 578.72H73.352C78.344 578.72 82.216 580.128 84.968 582.944C87.656 585.696 89 589.568 89 594.56ZM89 553.271V561.431C89 562.775 88.328 563.447 86.984 563.447H29.288C27.944 563.447 27.272 562.775 27.272 561.431V538.583C27.272 533.591 28.648 529.687 31.4 526.871C34.152 524.055 38.024 522.647 43.016 522.647H50.504C57.736 522.647 62.536 525.495 64.904 531.191H65.288L86.696 520.919C88.232 520.343 89 520.887 89 522.551V530.327C89 531.479 88.872 532.311 88.616 532.823C88.36 533.335 87.816 533.751 86.984 534.071L66.248 543.671V550.103C66.248 550.871 66.6 551.255 67.304 551.255H86.984C88.328 551.255 89 551.927 89 553.271ZM56.456 550.199V540.791C56.456 538.743 56.04 537.239 55.208 536.279C54.312 535.319 52.904 534.839 50.984 534.839H43.496C41.512 534.839 40.072 535.319 39.176 536.279C38.28 537.239 37.832 538.743 37.832 540.791V550.199C37.832 550.903 38.184 551.255 38.888 551.255H55.4C56.104 551.255 56.456 550.903 56.456 550.199ZM89 472.74V504.132C89 505.476 88.328 506.148 86.984 506.148H29.288C27.944 506.148 27.272 505.476 27.272 504.132V472.74C27.272 471.46 27.944 470.82 29.288 470.82H35.816C37.16 470.82 37.832 471.46 37.832 472.74L37.832 492.804C37.832 493.572 38.184 493.956 38.888 493.956H51.368C52.072 493.956 52.424 493.572 52.424 492.804V476.388C52.424 475.044 53.096 474.372 54.44 474.372H60.968C62.312 474.372 62.984 475.044 62.984 476.388V492.804C62.984 493.572 63.336 493.956 64.04 493.956H77.384C78.088 493.956 78.44 493.572 78.44 492.804V472.74C78.44 471.46 79.112 470.82 80.456 470.82H86.984C88.328 470.82 89 471.46 89 472.74ZM89 448.978V458.194C89 459.346 88.328 459.73 86.984 459.346L29.288 444.178C27.944 443.73 27.272 442.77 27.272 441.298V428.53C27.272 426.93 27.944 425.97 29.288 425.65L86.984 410.482C88.328 410.098 89 410.482 89 411.634V420.85C89 421.554 88.872 422.034 88.616 422.29C88.296 422.546 87.752 422.738 86.984 422.866L76.424 425.554V444.274L86.984 446.962C87.752 447.09 88.296 447.314 88.616 447.634C88.872 447.89 89 448.338 89 448.978ZM38.888 435.058L66.632 441.97V427.762L38.888 434.674V435.058ZM89 378.069V386.133C89 387.541 88.328 388.245 86.984 388.245H38.888C38.184 388.245 37.832 388.597 37.832 389.301V400.245C37.832 401.589 37.16 402.261 35.816 402.261H29.288C27.944 402.261 27.272 401.589 27.272 400.245L27.272 363.957C27.272 362.613 27.944 361.941 29.288 361.941H35.816C37.16 361.941 37.832 362.613 37.832 363.957V374.901C37.832 375.669 38.184 376.053 38.888 376.053H86.984C88.328 376.053 89 376.725 89 378.069ZM29.288 337.138H86.984C88.328 337.138 89 337.81 89 339.154V347.314C89 348.658 88.328 349.33 86.984 349.33H29.288C27.944 349.33 27.272 348.658 27.272 347.314V339.154C27.272 337.81 27.944 337.138 29.288 337.138ZM89 294.264L89 306.84C89 308.184 88.328 308.984 86.984 309.24L29.48 324.12C28.008 324.568 27.272 323.928 27.272 322.2V313.176C27.272 311.896 27.944 311.128 29.288 310.872L76.52 300.792V300.408L29.288 290.328C27.944 290.072 27.272 289.304 27.272 288.024V279C27.272 277.4 28.008 276.76 29.48 277.08L86.984 291.96C88.328 292.28 89 293.048 89 294.264ZM89 231.146V262.538C89 263.882 88.328 264.554 86.984 264.554H29.288C27.944 264.554 27.272 263.882 27.272 262.538V231.146C27.272 229.866 27.944 229.226 29.288 229.226H35.816C37.16 229.226 37.832 229.866 37.832 231.146L37.832 251.21C37.832 251.978 38.184 252.362 38.888 252.362H51.368C52.072 252.362 52.424 251.978 52.424 251.21L52.424 234.794C52.424 233.45 53.096 232.778 54.44 232.778H60.968C62.312 232.778 62.984 233.45 62.984 234.794L62.984 251.21C62.984 251.978 63.336 252.362 64.04 252.362H77.384C78.088 252.362 78.44 251.978 78.44 251.21V231.146C78.44 229.866 79.112 229.226 80.456 229.226H86.984C88.328 229.226 89 229.866 89 231.146Z" fill="white"/>
</g>
<defs>
<filter id="filter0_i" x="27.272" y="229.226" width="61.728" height="395.638" filterUnits="userSpaceOnUse" color-interpolation-filters="sRGB">
<feFlood flood-opacity="0" result="BackgroundImageFix"/>
<feBlend mode="normal" in="SourceGraphic" in2="BackgroundImageFix" result="shape"/>
<feColorMatrix in="SourceAlpha" type="matrix" values="0 0 0 0 0 0 0 0 0 0 0 0 0 0 0 0 0 0 127 0" result="hardAlpha"/>
<feOffset dy="4"/>
<feGaussianBlur stdDeviation="2"/>
<feComposite in2="hardAlpha" operator="arithmetic" k2="-1" k3="1"/>
<feColorMatrix type="matrix" values="0 0 0 0 0 0 0 0 0 0 0 0 0 0 0 0 0 0 0.25 0"/>
<feBlend mode="normal" in2="shape" result="effect1_innerShadow"/>
</filter>
</defs>
</svg>
