<svg width="905" height="835" viewBox="0 0 905 835" fill="none" xmlns="http://www.w3.org/2000/svg">
<g clip-path="url(#clip0)">
<rect width="905" height="835" fill="white"/>
<g filter="url(#filter0_i)">
<path d="M425.091 584.6H525.891C545.691 584.6 559.791 580.7 568.191 572.9C577.191 564.5 581.691 551 581.691 532.4V480.2C581.691 461.6 577.191 448.4 568.191 440.6C559.191 432.8 544.491 428.9 524.091 428.9H425.091C418.491 428.9 415.191 432.2 415.191 438.8V574.7C415.191 581.3 418.491 584.6 425.091 584.6ZM425.091 336.2H516.891C536.091 336.2 550.191 332.3 559.191 324.5C568.191 316.1 572.691 302.6 572.691 284V248.9C572.691 230.3 568.191 217.1 559.191 209.3C550.791 200.9 536.991 196.7 517.791 196.7H425.091C418.491 196.7 415.191 200 415.191 206.6V326.3C415.191 332.9 418.491 336.2 425.091 336.2ZM300.891 661.1V120.2C300.891 107.6 307.191 101.3 319.791 101.3H535.791C583.191 101.3 619.791 113.9 645.591 139.1C671.391 164.3 684.291 200.3 684.291 247.1V284C684.291 335 660.591 368 613.191 383C637.191 386.6 656.391 396.5 670.791 412.7C685.191 428.3 692.391 450.8 692.391 480.2V534.2C692.391 581 679.491 617 653.691 642.2C627.891 667.4 591.591 680 544.791 680H319.791C307.191 680 300.891 673.7 300.891 661.1Z" fill="#FF5722"/>
</g>
<g filter="url(#filter1_i)">
<rect x="221" y="101" width="123" height="579" rx="10" fill="#FF5722"/>
</g>
<rect x="333" y="101" width="22" height="579" fill="white"/>
<path d="M309 610.354V621.254C309 626.521 307.6 630.587 304.8 633.454C302 636.321 297.967 637.754 292.7 637.754H261C255.733 637.754 251.7 636.321 248.9 633.454C246.1 630.587 244.7 626.521 244.7 621.254V610.354C244.7 605.154 246.133 601.121 249 598.254C251.8 595.321 255.8 593.854 261 593.854H265.7C267.167 593.854 267.9 594.587 267.9 596.054V604.454C267.9 605.854 267.167 606.554 265.7 606.554H261.6C259.467 606.554 257.967 607.021 257.1 607.954C256.167 608.821 255.7 610.321 255.7 612.454V619.254C255.7 621.321 256.167 622.821 257.1 623.754C257.967 624.621 259.467 625.054 261.6 625.054H292.1C294.233 625.054 295.767 624.621 296.7 623.754C297.567 622.821 298 621.321 298 619.254V612.454C298 610.321 297.567 608.821 296.7 607.954C295.767 607.021 294.233 606.554 292.1 606.554H288C286.533 606.554 285.8 605.854 285.8 604.454V596.054C285.8 594.587 286.533 593.854 288 593.854H292.7C297.9 593.854 301.933 595.321 304.8 598.254C307.6 601.121 309 605.154 309 610.354ZM309 554.845V563.345C309 564.745 308.3 565.445 306.9 565.445H246.8C245.4 565.445 244.7 564.745 244.7 563.345V539.545C244.7 534.345 246.133 530.279 249 527.345C251.867 524.412 255.9 522.945 261.1 522.945H268.9C276.433 522.945 281.433 525.912 283.9 531.845H284.3L306.6 521.145C308.2 520.545 309 521.112 309 522.845V530.945C309 532.145 308.867 533.012 308.6 533.545C308.333 534.079 307.767 534.512 306.9 534.845L285.3 544.845V551.545C285.3 552.345 285.667 552.745 286.4 552.745H306.9C308.3 552.745 309 553.445 309 554.845ZM275.1 551.645V541.845C275.1 539.712 274.667 538.145 273.8 537.145C272.867 536.145 271.4 535.645 269.4 535.645H261.6C259.533 535.645 258.033 536.145 257.1 537.145C256.167 538.145 255.7 539.712 255.7 541.845V551.645C255.7 552.379 256.067 552.745 256.8 552.745H274C274.733 552.745 275.1 552.379 275.1 551.645ZM309 458.458V491.158C309 492.558 308.3 493.258 306.9 493.258H246.8C245.4 493.258 244.7 492.558 244.7 491.158V458.458C244.7 457.124 245.4 456.458 246.8 456.458H253.6C255 456.458 255.7 457.124 255.7 458.458V479.358C255.7 480.158 256.067 480.558 256.8 480.558H269.8C270.533 480.558 270.9 480.158 270.9 479.358V462.258C270.9 460.858 271.6 460.158 273 460.158H279.8C281.2 460.158 281.9 460.858 281.9 462.258V479.358C281.9 480.158 282.267 480.558 283 480.558H296.9C297.633 480.558 298 480.158 298 479.358V458.458C298 457.124 298.7 456.458 300.1 456.458H306.9C308.3 456.458 309 457.124 309 458.458ZM309 421.206V430.806C309 432.006 308.3 432.406 306.9 432.006L246.8 416.206C245.4 415.74 244.7 414.74 244.7 413.206V399.906C244.7 398.24 245.4 397.24 246.8 396.906L306.9 381.106C308.3 380.706 309 381.106 309 382.306V391.906C309 392.64 308.867 393.14 308.6 393.406C308.267 393.673 307.7 393.873 306.9 394.006L295.9 396.806V416.306L306.9 419.106C307.7 419.24 308.267 419.473 308.6 419.806C308.867 420.073 309 420.54 309 421.206ZM256.8 406.706L285.7 413.906V399.106L256.8 406.306V406.706ZM309 334.842V343.242C309 344.709 308.3 345.442 306.9 345.442H256.8C256.067 345.442 255.7 345.809 255.7 346.542V357.942C255.7 359.342 255 360.042 253.6 360.042H246.8C245.4 360.042 244.7 359.342 244.7 357.942V320.142C244.7 318.742 245.4 318.042 246.8 318.042H253.6C255 318.042 255.7 318.742 255.7 320.142V331.542C255.7 332.342 256.067 332.742 256.8 332.742H306.9C308.3 332.742 309 333.442 309 334.842ZM246.8 279.706H306.9C308.3 279.706 309 280.406 309 281.806V290.306C309 291.706 308.3 292.406 306.9 292.406H246.8C245.4 292.406 244.7 291.706 244.7 290.306V281.806C244.7 280.406 245.4 279.706 246.8 279.706ZM309 222.546V235.646C309 237.046 308.3 237.879 306.9 238.146L247 253.646C245.467 254.113 244.7 253.446 244.7 251.646V242.246C244.7 240.913 245.4 240.113 246.8 239.846L296 229.346V228.946L246.8 218.446C245.4 218.179 244.7 217.379 244.7 216.046V206.646C244.7 204.979 245.467 204.313 247 204.646L306.9 220.146C308.3 220.479 309 221.279 309 222.546ZM309 144.298V176.998C309 178.398 308.3 179.098 306.9 179.098H246.8C245.4 179.098 244.7 178.398 244.7 176.998V144.298C244.7 142.964 245.4 142.298 246.8 142.298H253.6C255 142.298 255.7 142.964 255.7 144.298V165.198C255.7 165.998 256.067 166.398 256.8 166.398H269.8C270.533 166.398 270.9 165.998 270.9 165.198L270.9 148.098C270.9 146.698 271.6 145.998 273 145.998H279.8C281.2 145.998 281.9 146.698 281.9 148.098V165.198C281.9 165.998 282.267 166.398 283 166.398H296.9C297.633 166.398 298 165.998 298 165.198V144.298C298 142.964 298.7 142.298 300.1 142.298H306.9C308.3 142.298 309 142.964 309 144.298Z" fill="white"/>
<path d="M304.8 633.454L303.369 632.056L303.369 632.056L304.8 633.454ZM248.9 633.454L250.331 632.056L250.331 632.056L248.9 633.454ZM249 598.254L250.414 599.668L250.431 599.652L250.447 599.635L249 598.254ZM257.1 607.954L258.461 609.419L258.515 609.369L258.566 609.315L257.1 607.954ZM257.1 623.754L255.686 625.168L255.686 625.168L257.1 623.754ZM296.7 623.754L298.061 625.219L298.115 625.169L298.166 625.115L296.7 623.754ZM296.7 607.954L298.114 606.54L298.114 606.54L296.7 607.954ZM304.8 598.254L306.231 596.856L306.23 596.856L304.8 598.254ZM307 610.354V621.254H311V610.354H307ZM307 621.254C307 626.168 305.701 629.669 303.369 632.056L306.231 634.851C309.499 631.505 311 626.873 311 621.254H307ZM303.369 632.056C301.053 634.428 297.604 635.754 292.7 635.754V639.754C298.329 639.754 302.947 638.214 306.231 634.851L303.369 632.056ZM292.7 635.754H261V639.754H292.7V635.754ZM261 635.754C256.096 635.754 252.647 634.428 250.331 632.056L247.469 634.851C250.753 638.214 255.371 639.754 261 639.754V635.754ZM250.331 632.056C247.999 629.669 246.7 626.168 246.7 621.254H242.7C242.7 626.873 244.201 631.505 247.469 634.851L250.331 632.056ZM246.7 621.254V610.354H242.7V621.254H246.7ZM246.7 610.354C246.7 605.527 248.021 602.062 250.414 599.668L247.586 596.84C244.246 600.18 242.7 604.78 242.7 610.354H246.7ZM250.447 599.635C252.77 597.201 256.184 595.854 261 595.854V591.854C255.416 591.854 250.83 593.44 247.553 596.873L250.447 599.635ZM261 595.854H265.7V591.854H261V595.854ZM265.7 595.854C265.906 595.854 266.005 595.88 266.03 595.889C266.046 595.894 265.997 595.879 265.936 595.818C265.875 595.757 265.86 595.708 265.865 595.724C265.874 595.749 265.9 595.848 265.9 596.054H269.9C269.9 595.012 269.638 593.864 268.764 592.99C267.89 592.116 266.742 591.854 265.7 591.854V595.854ZM265.9 596.054V604.454H269.9V596.054H265.9ZM265.9 604.454C265.9 604.635 265.876 604.71 265.874 604.713C265.874 604.713 265.88 604.696 265.897 604.669C265.915 604.641 265.939 604.611 265.969 604.582C266.034 604.52 266.082 604.509 266.056 604.517C266.022 604.528 265.914 604.554 265.7 604.554V608.554C266.719 608.554 267.854 608.312 268.731 607.476C269.625 606.622 269.9 605.487 269.9 604.454H265.9ZM265.7 604.554H261.6V608.554H265.7V604.554ZM261.6 604.554C259.269 604.554 257.069 605.048 255.634 606.593L258.566 609.315C258.865 608.993 259.665 608.554 261.6 608.554V604.554ZM255.739 606.488C254.194 607.923 253.7 610.123 253.7 612.454H257.7C257.7 610.519 258.139 609.718 258.461 609.419L255.739 606.488ZM253.7 612.454V619.254H257.7V612.454H253.7ZM253.7 619.254C253.7 621.56 254.212 623.695 255.686 625.168L258.514 622.34C258.121 621.947 257.7 621.082 257.7 619.254H253.7ZM255.686 625.168C257.124 626.606 259.301 627.054 261.6 627.054V623.054C259.633 623.054 258.809 622.635 258.514 622.34L255.686 625.168ZM261.6 627.054H292.1V623.054H261.6V627.054ZM292.1 627.054C294.42 627.054 296.577 626.598 298.061 625.219L295.339 622.288C294.957 622.643 294.047 623.054 292.1 623.054V627.054ZM298.166 625.115C299.535 623.64 300 621.528 300 619.254H296C296 621.113 295.598 622.001 295.234 622.393L298.166 625.115ZM300 619.254V612.454H296V619.254H300ZM300 612.454C300 610.154 299.552 607.978 298.114 606.54L295.286 609.368C295.581 609.663 296 610.487 296 612.454H300ZM298.114 606.54C296.631 605.056 294.451 604.554 292.1 604.554V608.554C294.016 608.554 294.902 608.985 295.286 609.368L298.114 606.54ZM292.1 604.554H288V608.554H292.1V604.554ZM288 604.554C287.786 604.554 287.678 604.528 287.644 604.517C287.618 604.509 287.666 604.52 287.731 604.582C287.761 604.611 287.785 604.641 287.803 604.669C287.82 604.696 287.826 604.713 287.826 604.713C287.824 604.71 287.8 604.635 287.8 604.454H283.8C283.8 605.487 284.075 606.622 284.969 607.476C285.846 608.312 286.981 608.554 288 608.554V604.554ZM287.8 604.454V596.054H283.8V604.454H287.8ZM287.8 596.054C287.8 595.848 287.826 595.749 287.835 595.724C287.84 595.708 287.825 595.757 287.764 595.818C287.703 595.879 287.654 595.894 287.67 595.889C287.695 595.88 287.794 595.854 288 595.854V591.854C286.958 591.854 285.81 592.116 284.936 592.99C284.062 593.864 283.8 595.012 283.8 596.054H287.8ZM288 595.854H292.7V591.854H288V595.854ZM292.7 595.854C297.514 595.854 300.974 597.2 303.37 599.652L306.23 596.856C302.893 593.441 298.286 591.854 292.7 591.854V595.854ZM303.369 599.651C305.705 602.043 307 605.515 307 610.354H311C311 604.793 309.495 600.198 306.231 596.856L303.369 599.651ZM283.9 531.845L282.053 532.613L282.566 533.845H283.9V531.845ZM284.3 531.845V533.845H284.755L285.165 533.648L284.3 531.845ZM306.6 521.145L305.898 519.273L305.815 519.304L305.735 519.342L306.6 521.145ZM308.6 533.545L310.389 534.44L310.389 534.44L308.6 533.545ZM306.9 534.845L306.182 532.979L306.12 533.002L306.06 533.03L306.9 534.845ZM285.3 544.845L284.46 543.03L283.3 543.567V544.845H285.3ZM273.8 537.145L275.311 535.835L275.287 535.808L275.262 535.781L273.8 537.145ZM257.1 537.145L255.638 535.781L255.638 535.781L257.1 537.145ZM307 554.845V563.345H311V554.845H307ZM307 563.345C307 563.535 306.976 563.619 306.971 563.632C306.97 563.636 306.974 563.622 306.99 563.596C307.006 563.569 307.029 563.538 307.061 563.506C307.092 563.474 307.124 563.451 307.151 563.435C307.176 563.42 307.191 563.415 307.186 563.417C307.174 563.421 307.089 563.445 306.9 563.445V567.445C307.908 567.445 309.032 567.192 309.889 566.335C310.747 565.477 311 564.354 311 563.345H307ZM306.9 563.445H246.8V567.445H306.9V563.445ZM246.8 563.445C246.611 563.445 246.526 563.421 246.514 563.417C246.509 563.415 246.524 563.42 246.549 563.435C246.576 563.451 246.608 563.474 246.639 563.506C246.671 563.538 246.694 563.569 246.71 563.596C246.726 563.622 246.73 563.636 246.729 563.632C246.724 563.619 246.7 563.535 246.7 563.345H242.7C242.7 564.354 242.953 565.477 243.811 566.335C244.668 567.192 245.792 567.445 246.8 567.445V563.445ZM246.7 563.345V539.545H242.7V563.345H246.7ZM246.7 539.545C246.7 534.721 248.02 531.21 250.43 528.743L247.57 525.947C244.247 529.348 242.7 533.969 242.7 539.545H246.7ZM250.43 528.743C252.826 526.292 256.286 524.945 261.1 524.945V520.945C255.514 520.945 250.907 522.532 247.57 525.947L250.43 528.743ZM261.1 524.945H268.9V520.945H261.1V524.945ZM268.9 524.945C272.411 524.945 275.167 525.637 277.279 526.89C279.369 528.13 280.967 530 282.053 532.613L285.747 531.078C284.366 527.757 282.231 525.177 279.321 523.45C276.433 521.737 272.922 520.945 268.9 520.945V524.945ZM283.9 533.845H284.3V529.845H283.9V533.845ZM285.165 533.648L307.465 522.948L305.735 519.342L283.435 530.042L285.165 533.648ZM307.302 523.018C307.43 522.97 307.526 522.943 307.593 522.928C307.66 522.913 307.686 522.914 307.678 522.914C307.668 522.914 307.615 522.914 307.532 522.891C307.446 522.867 307.344 522.824 307.244 522.752C307.144 522.681 307.071 522.602 307.023 522.533C306.977 522.468 306.962 522.424 306.961 522.421C306.96 522.42 306.971 522.45 306.981 522.525C306.992 522.599 307 522.704 307 522.845H311C311 521.815 310.785 520.359 309.556 519.488C308.312 518.607 306.863 518.911 305.898 519.273L307.302 523.018ZM307 522.845V530.945H311V522.845H307ZM307 530.945C307 531.478 306.97 531.887 306.923 532.191C306.9 532.341 306.875 532.453 306.852 532.533C306.841 532.573 306.831 532.602 306.823 532.622C306.816 532.642 306.811 532.651 306.811 532.651L310.389 534.44C310.875 533.467 311 532.203 311 530.945H307ZM306.811 532.651C306.838 532.597 306.849 532.614 306.76 532.682C306.666 532.754 306.488 532.861 306.182 532.979L307.618 536.712C308.701 536.295 309.803 535.611 310.389 534.44L306.811 532.651ZM306.06 533.03L284.46 543.03L286.14 546.66L307.74 536.66L306.06 533.03ZM283.3 544.845V551.545H287.3V544.845H283.3ZM283.3 551.545C283.3 552.213 283.449 553.086 284.101 553.797C284.782 554.54 285.678 554.745 286.4 554.745V550.745C286.389 550.745 286.734 550.75 287.049 551.094C287.334 551.405 287.3 551.678 287.3 551.545H283.3ZM286.4 554.745H306.9V550.745H286.4V554.745ZM306.9 554.745C307.089 554.745 307.174 554.77 307.186 554.774C307.191 554.775 307.176 554.771 307.151 554.756C307.124 554.74 307.092 554.716 307.061 554.685C307.029 554.653 307.006 554.621 306.99 554.595C306.974 554.569 306.97 554.555 306.971 554.559C306.976 554.572 307 554.656 307 554.845H311C311 553.837 310.747 552.713 309.889 551.856C309.032 550.999 307.908 550.745 306.9 550.745V554.745ZM277.1 551.645V541.845H273.1V551.645H277.1ZM277.1 541.845C277.1 539.508 276.637 537.364 275.311 535.835L272.289 538.455C272.697 538.926 273.1 539.916 273.1 541.845H277.1ZM275.262 535.781C273.804 534.219 271.696 533.645 269.4 533.645V537.645C271.104 537.645 271.929 538.072 272.338 538.51L275.262 535.781ZM269.4 533.645H261.6V537.645H269.4V533.645ZM261.6 533.645C259.261 533.645 257.106 534.207 255.638 535.781L258.562 538.51C258.96 538.083 259.806 537.645 261.6 537.645V533.645ZM255.638 535.781C254.209 537.311 253.7 539.478 253.7 541.845H257.7C257.7 539.946 258.124 538.979 258.562 538.51L255.638 535.781ZM253.7 541.845V551.645H257.7V541.845H253.7ZM253.7 551.645C253.7 552.32 253.87 553.194 254.561 553.885C255.251 554.575 256.125 554.745 256.8 554.745V550.745C256.742 550.745 257.065 550.732 257.389 551.056C257.713 551.38 257.7 551.704 257.7 551.645H253.7ZM256.8 554.745H274V550.745H256.8V554.745ZM274 554.745C274.675 554.745 275.549 554.575 276.239 553.885C276.93 553.194 277.1 552.32 277.1 551.645H273.1C273.1 551.704 273.087 551.38 273.411 551.056C273.735 550.732 274.058 550.745 274 550.745V554.745ZM307 458.458V491.158H311V458.458H307ZM307 491.158C307 491.347 306.976 491.431 306.971 491.444C306.97 491.448 306.974 491.434 306.99 491.409C307.006 491.382 307.029 491.35 307.061 491.319C307.092 491.287 307.124 491.263 307.151 491.248C307.176 491.232 307.191 491.228 307.186 491.229C307.174 491.233 307.089 491.258 306.9 491.258V495.258C307.908 495.258 309.032 495.004 309.889 494.147C310.747 493.29 311 492.166 311 491.158H307ZM306.9 491.258H246.8V495.258H306.9V491.258ZM246.8 491.258C246.611 491.258 246.526 491.233 246.514 491.229C246.509 491.228 246.524 491.232 246.549 491.248C246.576 491.263 246.608 491.287 246.639 491.319C246.671 491.35 246.694 491.382 246.71 491.409C246.726 491.434 246.73 491.448 246.729 491.444C246.724 491.431 246.7 491.347 246.7 491.158H242.7C242.7 492.166 242.953 493.29 243.811 494.147C244.668 495.004 245.792 495.258 246.8 495.258V491.258ZM246.7 491.158V458.458H242.7V491.158H246.7ZM246.7 458.458C246.7 458.378 246.705 458.322 246.711 458.286C246.716 458.25 246.721 458.238 246.719 458.244C246.717 458.25 246.708 458.273 246.687 458.305C246.667 458.338 246.639 458.373 246.604 458.406C246.57 458.439 246.537 458.461 246.513 458.476C246.489 458.489 246.477 458.492 246.486 458.489C246.496 458.486 246.525 458.478 246.577 458.471C246.63 458.464 246.704 458.458 246.8 458.458V454.458C245.815 454.458 244.706 454.691 243.846 455.51C242.968 456.346 242.7 457.457 242.7 458.458H246.7ZM246.8 458.458H253.6V454.458H246.8V458.458ZM253.6 458.458C253.696 458.458 253.77 458.464 253.823 458.471C253.875 458.478 253.904 458.486 253.914 458.489C253.923 458.492 253.911 458.489 253.887 458.476C253.863 458.461 253.83 458.439 253.796 458.406C253.761 458.373 253.733 458.338 253.712 458.305C253.692 458.273 253.683 458.25 253.681 458.244C253.679 458.238 253.684 458.25 253.689 458.286C253.695 458.322 253.7 458.378 253.7 458.458H257.7C257.7 457.457 257.432 456.346 256.554 455.51C255.694 454.691 254.585 454.458 253.6 454.458V458.458ZM253.7 458.458V479.358H257.7V458.458H253.7ZM253.7 479.358C253.7 480.025 253.849 480.899 254.501 481.609C255.182 482.353 256.078 482.558 256.8 482.558V478.558C256.789 478.558 257.134 478.563 257.449 478.906C257.734 479.217 257.7 479.491 257.7 479.358H253.7ZM256.8 482.558H269.8V478.558H256.8V482.558ZM269.8 482.558C270.522 482.558 271.418 482.353 272.099 481.609C272.751 480.899 272.9 480.025 272.9 479.358H268.9C268.9 479.491 268.866 479.217 269.151 478.906C269.466 478.563 269.811 478.558 269.8 478.558V482.558ZM272.9 479.358V462.258H268.9V479.358H272.9ZM272.9 462.258C272.9 462.069 272.924 461.984 272.929 461.972C272.93 461.967 272.926 461.981 272.91 462.007C272.894 462.034 272.871 462.065 272.839 462.097C272.808 462.129 272.776 462.152 272.749 462.168C272.724 462.184 272.709 462.188 272.714 462.186C272.726 462.182 272.811 462.158 273 462.158V458.158C271.992 458.158 270.868 458.411 270.011 459.269C269.153 460.126 268.9 461.25 268.9 462.258H272.9ZM273 462.158H279.8V458.158H273V462.158ZM279.8 462.158C279.989 462.158 280.074 462.182 280.086 462.186C280.091 462.188 280.076 462.184 280.051 462.168C280.024 462.152 279.992 462.129 279.961 462.097C279.929 462.065 279.906 462.034 279.89 462.007C279.874 461.981 279.87 461.967 279.871 461.972C279.876 461.984 279.9 462.069 279.9 462.258H283.9C283.9 461.25 283.647 460.126 282.789 459.269C281.932 458.411 280.808 458.158 279.8 458.158V462.158ZM279.9 462.258V479.358H283.9V462.258H279.9ZM279.9 479.358C279.9 480.025 280.049 480.899 280.701 481.609C281.382 482.353 282.278 482.558 283 482.558V478.558C282.989 478.558 283.334 478.563 283.649 478.906C283.934 479.217 283.9 479.491 283.9 479.358H279.9ZM283 482.558H296.9V478.558H283V482.558ZM296.9 482.558C297.622 482.558 298.518 482.353 299.199 481.609C299.851 480.899 300 480.025 300 479.358H296C296 479.491 295.966 479.217 296.251 478.906C296.566 478.563 296.911 478.558 296.9 478.558V482.558ZM300 479.358V458.458H296V479.358H300ZM300 458.458C300 458.378 300.005 458.322 300.011 458.286C300.016 458.25 300.021 458.238 300.019 458.244C300.017 458.25 300.008 458.273 299.987 458.305C299.967 458.338 299.939 458.373 299.904 458.406C299.87 458.439 299.837 458.461 299.813 458.476C299.789 458.489 299.777 458.492 299.786 458.489C299.796 458.486 299.825 458.478 299.877 458.471C299.93 458.464 300.004 458.458 300.1 458.458V454.458C299.115 454.458 298.006 454.691 297.146 455.51C296.268 456.346 296 457.457 296 458.458H300ZM300.1 458.458H306.9V454.458H300.1V458.458ZM306.9 458.458C306.996 458.458 307.07 458.464 307.123 458.471C307.175 458.478 307.204 458.486 307.214 458.489C307.223 458.492 307.211 458.489 307.187 458.476C307.163 458.461 307.13 458.439 307.096 458.406C307.061 458.373 307.033 458.338 307.013 458.305C306.992 458.273 306.983 458.25 306.981 458.244C306.979 458.238 306.984 458.25 306.989 458.286C306.995 458.322 307 458.378 307 458.458H311C311 457.457 310.732 456.346 309.854 455.51C308.994 454.691 307.885 454.458 306.9 454.458V458.458ZM306.9 432.006L307.449 430.083L307.429 430.077L307.409 430.072L306.9 432.006ZM246.8 416.206L246.168 418.104L246.229 418.124L246.291 418.141L246.8 416.206ZM246.8 396.906L247.263 398.852L247.286 398.846L247.309 398.841L246.8 396.906ZM306.9 381.106L307.409 383.041L307.429 383.035L307.449 383.029L306.9 381.106ZM308.6 393.406L309.849 394.968L309.936 394.899L310.014 394.82L308.6 393.406ZM306.9 394.006L306.571 392.033L306.488 392.047L306.407 392.068L306.9 394.006ZM295.9 396.806L295.407 394.868L293.9 395.252V396.806H295.9ZM295.9 416.306H293.9V417.861L295.407 418.244L295.9 416.306ZM306.9 419.106L306.407 421.044L306.488 421.065L306.571 421.079L306.9 419.106ZM308.6 419.806L310.014 418.392L310.014 418.392L308.6 419.806ZM256.8 406.706H254.8V408.269L256.317 408.647L256.8 406.706ZM285.7 413.906L285.217 415.847L287.7 416.466V413.906H285.7ZM285.7 399.106H287.7V396.547L285.217 397.166L285.7 399.106ZM256.8 406.306L256.317 404.366L254.8 404.743V406.306H256.8ZM307 421.206V430.806H311V421.206H307ZM307 430.806C307 430.927 306.98 430.883 307.036 430.755C307.106 430.595 307.253 430.401 307.483 430.27C307.688 430.152 307.836 430.156 307.819 430.156C307.798 430.156 307.684 430.15 307.449 430.083L306.351 433.929C307.187 434.168 308.391 434.358 309.467 433.743C310.714 433.03 311 431.741 311 430.806H307ZM307.409 430.072L247.309 414.272L246.291 418.141L306.391 433.941L307.409 430.072ZM247.432 414.309C247.052 414.182 246.919 414.039 246.863 413.959C246.803 413.873 246.7 413.668 246.7 413.206H242.7C242.7 414.278 242.947 415.34 243.587 416.253C244.231 417.173 245.148 417.764 246.168 418.104L247.432 414.309ZM246.7 413.206V399.906H242.7V413.206H246.7ZM246.7 399.906C246.7 399.337 246.821 399.114 246.863 399.053C246.884 399.024 246.949 398.927 247.263 398.852L246.337 394.961C245.251 395.219 244.266 395.788 243.587 396.759C242.929 397.698 242.7 398.809 242.7 399.906H246.7ZM247.309 398.841L307.409 383.041L306.391 379.172L246.291 394.972L247.309 398.841ZM307.449 383.029C307.684 382.962 307.798 382.956 307.819 382.956C307.836 382.956 307.688 382.96 307.483 382.843C307.253 382.711 307.106 382.517 307.036 382.358C306.98 382.229 307 382.185 307 382.306H311C311 381.372 310.714 380.082 309.467 379.37C308.391 378.755 307.187 378.944 306.351 379.183L307.449 383.029ZM307 382.306V391.906H311V382.306H307ZM307 391.906C307 392.03 306.994 392.126 306.987 392.198C306.979 392.27 306.97 392.307 306.968 392.316C306.965 392.326 306.972 392.294 307.002 392.237C307.032 392.179 307.089 392.088 307.186 391.992L310.014 394.82C310.882 393.953 311 392.729 311 391.906H307ZM307.351 391.845C307.414 391.793 307.411 391.817 307.259 391.87C307.116 391.921 306.893 391.98 306.571 392.033L307.229 395.979C308.113 395.832 309.103 395.565 309.849 394.968L307.351 391.845ZM306.407 392.068L295.407 394.868L296.393 398.744L307.393 395.944L306.407 392.068ZM293.9 396.806V416.306H297.9V396.806H293.9ZM295.407 418.244L306.407 421.044L307.393 417.168L296.393 414.368L295.407 418.244ZM306.571 421.079C306.867 421.128 307.056 421.186 307.164 421.231C307.273 421.275 307.253 421.287 307.186 421.22L310.014 418.392C309.241 417.619 308.176 417.291 307.229 417.133L306.571 421.079ZM307.186 421.22C307.019 421.054 306.978 420.908 306.977 420.906C306.976 420.903 306.982 420.925 306.989 420.977C306.995 421.03 307 421.105 307 421.206H311C311 420.384 310.857 419.235 310.014 418.392L307.186 421.22ZM256.317 408.647L285.217 415.847L286.183 411.966L257.283 404.766L256.317 408.647ZM287.7 413.906V399.106H283.7V413.906H287.7ZM285.217 397.166L256.317 404.366L257.283 408.247L286.183 401.047L285.217 397.166ZM254.8 406.306V406.706H258.8V406.306H254.8ZM307 334.842V343.242H311V334.842H307ZM307 343.242C307 343.456 306.974 343.564 306.963 343.598C306.955 343.624 306.966 343.577 307.028 343.511C307.057 343.481 307.088 343.457 307.115 343.44C307.142 343.422 307.159 343.416 307.159 343.417C307.156 343.418 307.081 343.442 306.9 343.442V347.442C307.933 347.442 309.068 347.167 309.922 346.273C310.758 345.397 311 344.261 311 343.242H307ZM306.9 343.442H256.8V347.442H306.9V343.442ZM256.8 343.442C256.125 343.442 255.251 343.612 254.561 344.303C253.87 344.994 253.7 345.867 253.7 346.542H257.7C257.7 346.484 257.713 346.807 257.389 347.131C257.065 347.455 256.742 347.442 256.8 347.442V343.442ZM253.7 346.542V357.942H257.7V346.542H253.7ZM253.7 357.942C253.7 358.131 253.676 358.216 253.671 358.228C253.67 358.233 253.674 358.219 253.69 358.193C253.706 358.166 253.729 358.135 253.761 358.103C253.792 358.071 253.824 358.048 253.851 358.032C253.876 358.016 253.891 358.012 253.886 358.014C253.874 358.018 253.789 358.042 253.6 358.042V362.042C254.608 362.042 255.732 361.789 256.589 360.931C257.447 360.074 257.7 358.95 257.7 357.942H253.7ZM253.6 358.042H246.8V362.042H253.6V358.042ZM246.8 358.042C246.611 358.042 246.526 358.018 246.514 358.014C246.509 358.012 246.524 358.016 246.549 358.032C246.576 358.048 246.608 358.071 246.639 358.103C246.671 358.135 246.694 358.166 246.71 358.193C246.726 358.219 246.73 358.233 246.729 358.228C246.724 358.216 246.7 358.131 246.7 357.942H242.7C242.7 358.95 242.953 360.074 243.811 360.931C244.668 361.789 245.792 362.042 246.8 362.042V358.042ZM246.7 357.942V320.142H242.7V357.942H246.7ZM246.7 320.142C246.7 319.953 246.724 319.869 246.729 319.856C246.73 319.852 246.726 319.866 246.71 319.891C246.694 319.918 246.671 319.95 246.639 319.981C246.608 320.013 246.576 320.037 246.549 320.052C246.524 320.068 246.509 320.072 246.514 320.071C246.526 320.067 246.611 320.042 246.8 320.042V316.042C245.792 316.042 244.668 316.296 243.811 317.153C242.953 318.01 242.7 319.134 242.7 320.142H246.7ZM246.8 320.042H253.6V316.042H246.8V320.042ZM253.6 320.042C253.789 320.042 253.874 320.067 253.886 320.071C253.891 320.072 253.876 320.068 253.851 320.052C253.824 320.037 253.792 320.013 253.761 319.981C253.729 319.95 253.706 319.918 253.69 319.891C253.674 319.866 253.67 319.852 253.671 319.856C253.676 319.869 253.7 319.953 253.7 320.142H257.7C257.7 319.134 257.447 318.01 256.589 317.153C255.732 316.296 254.608 316.042 253.6 316.042V320.042ZM253.7 320.142V331.542H257.7V320.142H253.7ZM253.7 331.542C253.7 332.209 253.849 333.083 254.501 333.794C255.182 334.537 256.078 334.742 256.8 334.742V330.742C256.789 330.742 257.134 330.747 257.449 331.091C257.734 331.401 257.7 331.675 257.7 331.542H253.7ZM256.8 334.742H306.9V330.742H256.8V334.742ZM306.9 334.742C307.089 334.742 307.174 334.767 307.186 334.771C307.191 334.772 307.176 334.768 307.151 334.752C307.124 334.737 307.092 334.713 307.061 334.681C307.029 334.65 307.006 334.618 306.99 334.591C306.974 334.566 306.97 334.552 306.971 334.556C306.976 334.569 307 334.653 307 334.842H311C311 333.834 310.747 332.71 309.889 331.853C309.032 330.996 307.908 330.742 306.9 330.742V334.742ZM246.8 281.706H306.9V277.706H246.8V281.706ZM306.9 281.706C307.089 281.706 307.174 281.731 307.186 281.735C307.191 281.736 307.176 281.732 307.151 281.717C307.124 281.701 307.092 281.677 307.061 281.645C307.029 281.614 307.006 281.582 306.99 281.556C306.974 281.53 306.97 281.516 306.971 281.52C306.976 281.533 307 281.617 307 281.806H311C311 280.798 310.747 279.674 309.889 278.817C309.032 277.96 307.908 277.706 306.9 277.706V281.706ZM307 281.806V290.306H311V281.806H307ZM307 290.306C307 290.496 306.976 290.58 306.971 290.593C306.97 290.597 306.974 290.583 306.99 290.557C307.006 290.53 307.029 290.499 307.061 290.467C307.092 290.435 307.124 290.412 307.151 290.396C307.176 290.38 307.191 290.376 307.186 290.378C307.174 290.382 307.089 290.406 306.9 290.406V294.406C307.908 294.406 309.032 294.153 309.889 293.295C310.747 292.438 311 291.315 311 290.306H307ZM306.9 290.406H246.8V294.406H306.9V290.406ZM246.8 290.406C246.611 290.406 246.526 290.382 246.514 290.378C246.509 290.376 246.524 290.38 246.549 290.396C246.576 290.412 246.608 290.435 246.639 290.467C246.671 290.499 246.694 290.53 246.71 290.557C246.726 290.583 246.73 290.597 246.729 290.593C246.724 290.58 246.7 290.496 246.7 290.306H242.7C242.7 291.315 242.953 292.438 243.811 293.295C244.668 294.153 245.792 294.406 246.8 294.406V290.406ZM246.7 290.306V281.806H242.7V290.306H246.7ZM246.7 281.806C246.7 281.617 246.724 281.533 246.729 281.52C246.73 281.516 246.726 281.53 246.71 281.556C246.694 281.582 246.671 281.614 246.639 281.645C246.608 281.677 246.576 281.701 246.549 281.717C246.524 281.732 246.509 281.736 246.514 281.735C246.526 281.731 246.611 281.706 246.8 281.706V277.706C245.792 277.706 244.668 277.96 243.811 278.817C242.953 279.674 242.7 280.798 242.7 281.806H246.7ZM306.9 238.146L306.526 236.181L306.462 236.194L306.399 236.21L306.9 238.146ZM247 253.646L246.499 251.71L246.458 251.72L246.418 251.733L247 253.646ZM246.8 239.846L247.174 241.811L247.196 241.807L247.217 241.802L246.8 239.846ZM296 229.346L296.417 231.302L298 230.964V229.346H296ZM296 228.946H298V227.328L296.417 226.99L296 228.946ZM246.8 218.446L247.217 216.49L247.196 216.486L247.174 216.481L246.8 218.446ZM247 204.646L247.501 202.71L247.463 202.7L247.425 202.692L247 204.646ZM306.9 220.146L306.399 222.082L306.418 222.087L306.437 222.092L306.9 220.146ZM307 222.546V235.646H311V222.546H307ZM307 235.646C307 236.013 306.913 236.071 306.944 236.035C306.971 236.002 306.915 236.107 306.526 236.181L307.274 240.111C308.285 239.918 309.279 239.473 310.006 238.607C310.737 237.738 311 236.679 311 235.646H307ZM306.399 236.21L246.499 251.71L247.501 255.582L307.401 240.082L306.399 236.21ZM246.418 251.733C246.31 251.766 246.235 251.78 246.19 251.786C246.145 251.793 246.14 251.789 246.167 251.791C246.196 251.794 246.259 251.803 246.341 251.836C246.426 251.87 246.511 251.921 246.587 251.987C246.743 252.122 246.769 252.239 246.754 252.19C246.746 252.166 246.732 252.111 246.72 252.017C246.708 251.924 246.7 251.802 246.7 251.646H242.7C242.7 252.705 242.903 254.084 243.963 255.005C245.117 256.009 246.556 255.872 247.582 255.559L246.418 251.733ZM246.7 251.646V242.246H242.7V251.646H246.7ZM246.7 242.246C246.7 242.086 246.721 242.001 246.732 241.97C246.74 241.944 246.742 241.95 246.73 241.963C246.7 241.998 246.764 241.889 247.174 241.811L246.426 237.881C245.436 238.07 244.45 238.494 243.72 239.329C242.976 240.179 242.7 241.222 242.7 242.246H246.7ZM247.217 241.802L296.417 231.302L295.583 227.39L246.383 237.89L247.217 241.802ZM298 229.346V228.946H294V229.346H298ZM296.417 226.99L247.217 216.49L246.383 220.402L295.583 230.902L296.417 226.99ZM247.174 216.481C246.764 216.403 246.7 216.294 246.73 216.329C246.742 216.343 246.74 216.348 246.732 216.323C246.721 216.291 246.7 216.206 246.7 216.046H242.7C242.7 217.07 242.976 218.113 243.72 218.963C244.45 219.798 245.436 220.222 246.426 220.411L247.174 216.481ZM246.7 216.046V206.646H242.7V216.046H246.7ZM246.7 206.646C246.7 206.513 246.708 206.411 246.718 206.336C246.728 206.261 246.74 206.221 246.744 206.208C246.748 206.196 246.743 206.216 246.718 206.256C246.692 206.297 246.649 206.351 246.587 206.405C246.525 206.46 246.458 206.5 246.396 206.527C246.336 206.553 246.293 206.561 246.281 206.563C246.269 206.565 246.286 206.561 246.337 206.564C246.388 206.567 246.467 206.577 246.575 206.6L247.425 202.692C246.386 202.466 245.037 202.453 243.963 203.387C242.929 204.286 242.7 205.595 242.7 206.646H246.7ZM246.499 206.582L306.399 222.082L307.401 218.21L247.501 202.71L246.499 206.582ZM306.437 222.092C306.651 222.143 306.787 222.2 306.869 222.244C306.909 222.265 306.934 222.283 306.949 222.294C306.963 222.306 306.969 222.312 306.97 222.313C306.971 222.314 306.97 222.313 306.969 222.312C306.969 222.311 306.971 222.314 306.974 222.325C306.982 222.347 307 222.413 307 222.546H311C311 221.526 310.708 220.511 309.98 219.679C309.275 218.873 308.327 218.43 307.363 218.2L306.437 222.092ZM307 144.298V176.998H311V144.298H307ZM307 176.998C307 177.187 306.976 177.271 306.971 177.284C306.97 177.288 306.974 177.274 306.99 177.248C307.006 177.222 307.029 177.19 307.061 177.158C307.092 177.127 307.124 177.103 307.151 177.087C307.176 177.072 307.191 177.068 307.186 177.069C307.174 177.073 307.089 177.098 306.9 177.098V181.098C307.908 181.098 309.032 180.844 309.889 179.987C310.747 179.13 311 178.006 311 176.998H307ZM306.9 177.098H246.8V181.098H306.9V177.098ZM246.8 177.098C246.611 177.098 246.526 177.073 246.514 177.069C246.509 177.068 246.524 177.072 246.549 177.087C246.576 177.103 246.608 177.127 246.639 177.158C246.671 177.19 246.694 177.222 246.71 177.248C246.726 177.274 246.73 177.288 246.729 177.284C246.724 177.271 246.7 177.187 246.7 176.998H242.7C242.7 178.006 242.953 179.13 243.811 179.987C244.668 180.844 245.792 181.098 246.8 181.098V177.098ZM246.7 176.998V144.298H242.7V176.998H246.7ZM246.7 144.298C246.7 144.218 246.705 144.162 246.711 144.126C246.716 144.09 246.721 144.078 246.719 144.083C246.717 144.09 246.708 144.113 246.687 144.145C246.667 144.178 246.639 144.213 246.604 144.246C246.57 144.279 246.537 144.301 246.513 144.315C246.489 144.329 246.477 144.332 246.486 144.329C246.496 144.326 246.525 144.318 246.577 144.311C246.63 144.303 246.704 144.298 246.8 144.298V140.298C245.815 140.298 244.706 140.53 243.846 141.349C242.968 142.186 242.7 143.297 242.7 144.298H246.7ZM246.8 144.298H253.6V140.298H246.8V144.298ZM253.6 144.298C253.696 144.298 253.77 144.303 253.823 144.311C253.875 144.318 253.904 144.326 253.914 144.329C253.923 144.332 253.911 144.329 253.887 144.315C253.863 144.301 253.83 144.279 253.796 144.246C253.761 144.213 253.733 144.178 253.712 144.145C253.692 144.113 253.683 144.09 253.681 144.083C253.679 144.078 253.684 144.09 253.689 144.126C253.695 144.162 253.7 144.218 253.7 144.298H257.7C257.7 143.297 257.432 142.186 256.554 141.349C255.694 140.53 254.585 140.298 253.6 140.298V144.298ZM253.7 144.298V165.198H257.7L257.7 144.298H253.7ZM253.7 165.198C253.7 165.865 253.849 166.738 254.501 167.449C255.182 168.193 256.078 168.398 256.8 168.398V164.398C256.789 164.398 257.134 164.403 257.449 164.746C257.734 165.057 257.7 165.33 257.7 165.198H253.7ZM256.8 168.398H269.8V164.398H256.8V168.398ZM269.8 168.398C270.522 168.398 271.418 168.193 272.099 167.449C272.751 166.738 272.9 165.865 272.9 165.198H268.9C268.9 165.33 268.866 165.057 269.151 164.746C269.466 164.403 269.811 164.398 269.8 164.398V168.398ZM272.9 165.198L272.9 148.098H268.9L268.9 165.198H272.9ZM272.9 148.098C272.9 147.908 272.924 147.824 272.929 147.811C272.93 147.807 272.926 147.821 272.91 147.847C272.894 147.873 272.871 147.905 272.839 147.937C272.808 147.969 272.776 147.992 272.749 148.008C272.724 148.023 272.709 148.028 272.714 148.026C272.726 148.022 272.811 147.998 273 147.998V143.998C271.992 143.998 270.868 144.251 270.011 145.108C269.153 145.966 268.9 147.089 268.9 148.098H272.9ZM273 147.998H279.8V143.998H273V147.998ZM279.8 147.998C279.989 147.998 280.074 148.022 280.086 148.026C280.091 148.028 280.076 148.023 280.051 148.008C280.024 147.992 279.992 147.969 279.961 147.937C279.929 147.905 279.906 147.873 279.89 147.847C279.874 147.821 279.87 147.807 279.871 147.811C279.876 147.824 279.9 147.908 279.9 148.098H283.9C283.9 147.089 283.647 145.966 282.789 145.108C281.932 144.251 280.808 143.998 279.8 143.998V147.998ZM279.9 148.098L279.9 165.198H283.9V148.098H279.9ZM279.9 165.198C279.9 165.865 280.049 166.738 280.701 167.449C281.382 168.193 282.278 168.398 283 168.398V164.398C282.989 164.398 283.334 164.403 283.649 164.746C283.934 165.057 283.9 165.33 283.9 165.198H279.9ZM283 168.398H296.9V164.398H283V168.398ZM296.9 168.398C297.622 168.398 298.518 168.193 299.199 167.449C299.851 166.738 300 165.865 300 165.198H296C296 165.33 295.966 165.057 296.251 164.746C296.566 164.403 296.911 164.398 296.9 164.398V168.398ZM300 165.198V144.298H296V165.198H300ZM300 144.298C300 144.218 300.005 144.162 300.011 144.126C300.016 144.09 300.021 144.078 300.019 144.083C300.017 144.09 300.008 144.113 299.987 144.145C299.967 144.178 299.939 144.213 299.904 144.246C299.87 144.279 299.837 144.301 299.813 144.315C299.789 144.329 299.777 144.332 299.786 144.329C299.796 144.326 299.825 144.318 299.877 144.311C299.93 144.303 300.004 144.298 300.1 144.298V140.298C299.115 140.298 298.006 140.53 297.146 141.349C296.268 142.186 296 143.297 296 144.298H300ZM300.1 144.298H306.9V140.298H300.1V144.298ZM306.9 144.298C306.996 144.298 307.07 144.303 307.123 144.311C307.175 144.318 307.204 144.326 307.214 144.329C307.223 144.332 307.211 144.329 307.187 144.315C307.163 144.301 307.13 144.279 307.096 144.246C307.061 144.213 307.033 144.178 307.013 144.145C306.992 144.113 306.983 144.09 306.981 144.083C306.979 144.078 306.984 144.09 306.989 144.126C306.995 144.162 307 144.218 307 144.298H311C311 143.297 310.732 142.186 309.854 141.349C308.994 140.53 307.885 140.298 306.9 140.298V144.298Z" fill="white"/>
</g>
<defs>
<filter id="filter0_i" x="300.891" y="101.3" width="391.5" height="582.7" filterUnits="userSpaceOnUse" color-interpolation-filters="sRGB">
<feFlood flood-opacity="0" result="BackgroundImageFix"/>
<feBlend mode="normal" in="SourceGraphic" in2="BackgroundImageFix" result="shape"/>
<feColorMatrix in="SourceAlpha" type="matrix" values="0 0 0 0 0 0 0 0 0 0 0 0 0 0 0 0 0 0 127 0" result="hardAlpha"/>
<feOffset dy="4"/>
<feGaussianBlur stdDeviation="2"/>
<feComposite in2="hardAlpha" operator="arithmetic" k2="-1" k3="1"/>
<feColorMatrix type="matrix" values="0 0 0 0 0 0 0 0 0 0 0 0 0 0 0 0 0 0 0.25 0"/>
<feBlend mode="normal" in2="shape" result="effect1_innerShadow"/>
</filter>
<filter id="filter1_i" x="221" y="101" width="123" height="583" filterUnits="userSpaceOnUse" color-interpolation-filters="sRGB">
<feFlood flood-opacity="0" result="BackgroundImageFix"/>
<feBlend mode="normal" in="SourceGraphic" in2="BackgroundImageFix" result="shape"/>
<feColorMatrix in="SourceAlpha" type="matrix" values="0 0 0 0 0 0 0 0 0 0 0 0 0 0 0 0 0 0 127 0" result="hardAlpha"/>
<feOffset dy="4"/>
<feGaussianBlur stdDeviation="2"/>
<feComposite in2="hardAlpha" operator="arithmetic" k2="-1" k3="1"/>
<feColorMatrix type="matrix" values="0 0 0 0 0 0 0 0 0 0 0 0 0 0 0 0 0 0 0.25 0"/>
<feBlend mode="normal" in2="shape" result="effect1_innerShadow"/>
</filter>
<clipPath id="clip0">
<rect width="905" height="835" fill="white"/>
</clipPath>
</defs>
</svg>
