<svg width="417" height="893" viewBox="0 0 417 893" fill="none" xmlns="http://www.w3.org/2000/svg">
<g filter="url(#filter0_i)">
<path d="M170.459 576.8H248.859C264.259 576.8 275.226 573.767 281.759 567.7C288.759 561.167 292.259 550.667 292.259 536.2V495.6C292.259 481.133 288.759 470.867 281.759 464.8C274.759 458.733 263.326 455.7 247.459 455.7H170.459C165.326 455.7 162.759 458.267 162.759 463.4V569.1C162.759 574.233 165.326 576.8 170.459 576.8ZM170.459 383.6H241.859C256.793 383.6 267.759 380.567 274.759 374.5C281.759 367.967 285.259 357.467 285.259 343V315.7C285.259 301.233 281.759 290.967 274.759 284.9C268.226 278.367 257.493 275.1 242.559 275.1H170.459C165.326 275.1 162.759 277.667 162.759 282.8V375.9C162.759 381.033 165.326 383.6 170.459 383.6ZM73.8594 636.3V215.6C73.8594 205.8 78.7594 200.9 88.5594 200.9H256.559C293.426 200.9 321.893 210.7 341.959 230.3C362.026 249.9 372.059 277.9 372.059 314.3V343C372.059 382.667 353.626 408.333 316.759 420C335.426 422.8 350.359 430.5 361.559 443.1C372.759 455.233 378.359 472.733 378.359 495.6V537.6C378.359 574 368.326 602 348.259 621.6C328.193 641.2 299.959 651 263.559 651H88.5594C78.7594 651 73.8594 646.1 73.8594 636.3Z" fill="#FF5722"/>
</g>
<g filter="url(#filter1_i)">
<rect x="18" y="201" width="88" height="450" rx="10" fill="#FF5722"/>
</g>
<path d="M89 594.56V605.024C89 610.08 87.656 613.984 84.968 616.736C82.28 619.488 78.408 620.864 73.352 620.864H42.92C37.864 620.864 33.992 619.488 31.304 616.736C28.616 613.984 27.272 610.08 27.272 605.024V594.56C27.272 589.568 28.648 585.696 31.4 582.944C34.088 580.128 37.928 578.72 42.92 578.72H47.432C48.84 578.72 49.544 579.424 49.544 580.832V588.896C49.544 590.24 48.84 590.912 47.432 590.912H43.496C41.448 590.912 40.008 591.36 39.176 592.256C38.28 593.088 37.832 594.528 37.832 596.576V603.104C37.832 605.088 38.28 606.528 39.176 607.424C40.008 608.256 41.448 608.672 43.496 608.672H72.776C74.824 608.672 76.296 608.256 77.192 607.424C78.024 606.528 78.44 605.088 78.44 603.104V596.576C78.44 594.528 78.024 593.088 77.192 592.256C76.296 591.36 74.824 590.912 72.776 590.912H68.84C67.432 590.912 66.728 590.24 66.728 588.896V580.832C66.728 579.424 67.432 578.72 68.84 578.72H73.352C78.344 578.72 82.216 580.128 84.968 582.944C87.656 585.696 89 589.568 89 594.56ZM89 553.271V561.431C89 562.775 88.328 563.447 86.984 563.447H29.288C27.944 563.447 27.272 562.775 27.272 561.431V538.583C27.272 533.591 28.648 529.687 31.4 526.871C34.152 524.055 38.024 522.647 43.016 522.647H50.504C57.736 522.647 62.536 525.495 64.904 531.191H65.288L86.696 520.919C88.232 520.343 89 520.887 89 522.551V530.327C89 531.479 88.872 532.311 88.616 532.823C88.36 533.335 87.816 533.751 86.984 534.071L66.248 543.671V550.103C66.248 550.871 66.6 551.255 67.304 551.255H86.984C88.328 551.255 89 551.927 89 553.271ZM56.456 550.199V540.791C56.456 538.743 56.04 537.239 55.208 536.279C54.312 535.319 52.904 534.839 50.984 534.839H43.496C41.512 534.839 40.072 535.319 39.176 536.279C38.28 537.239 37.832 538.743 37.832 540.791V550.199C37.832 550.903 38.184 551.255 38.888 551.255H55.4C56.104 551.255 56.456 550.903 56.456 550.199ZM89 472.74V504.132C89 505.476 88.328 506.148 86.984 506.148H29.288C27.944 506.148 27.272 505.476 27.272 504.132V472.74C27.272 471.46 27.944 470.82 29.288 470.82H35.816C37.16 470.82 37.832 471.46 37.832 472.74L37.832 492.804C37.832 493.572 38.184 493.956 38.888 493.956H51.368C52.072 493.956 52.424 493.572 52.424 492.804V476.388C52.424 475.044 53.096 474.372 54.44 474.372H60.968C62.312 474.372 62.984 475.044 62.984 476.388V492.804C62.984 493.572 63.336 493.956 64.04 493.956H77.384C78.088 493.956 78.44 493.572 78.44 492.804V472.74C78.44 471.46 79.112 470.82 80.456 470.82H86.984C88.328 470.82 89 471.46 89 472.74ZM89 448.978V458.194C89 459.346 88.328 459.73 86.984 459.346L29.288 444.178C27.944 443.73 27.272 442.77 27.272 441.298V428.53C27.272 426.93 27.944 425.97 29.288 425.65L86.984 410.482C88.328 410.098 89 410.482 89 411.634V420.85C89 421.554 88.872 422.034 88.616 422.29C88.296 422.546 87.752 422.738 86.984 422.866L76.424 425.554V444.274L86.984 446.962C87.752 447.09 88.296 447.314 88.616 447.634C88.872 447.89 89 448.338 89 448.978ZM38.888 435.058L66.632 441.97V427.762L38.888 434.674V435.058ZM89 378.069V386.133C89 387.541 88.328 388.245 86.984 388.245H38.888C38.184 388.245 37.832 388.597 37.832 389.301V400.245C37.832 401.589 37.16 402.261 35.816 402.261H29.288C27.944 402.261 27.272 401.589 27.272 400.245L27.272 363.957C27.272 362.613 27.944 361.941 29.288 361.941H35.816C37.16 361.941 37.832 362.613 37.832 363.957V374.901C37.832 375.669 38.184 376.053 38.888 376.053H86.984C88.328 376.053 89 376.725 89 378.069ZM29.288 337.138H86.984C88.328 337.138 89 337.81 89 339.154V347.314C89 348.658 88.328 349.33 86.984 349.33H29.288C27.944 349.33 27.272 348.658 27.272 347.314V339.154C27.272 337.81 27.944 337.138 29.288 337.138ZM89 294.264L89 306.84C89 308.184 88.328 308.984 86.984 309.24L29.48 324.12C28.008 324.568 27.272 323.928 27.272 322.2V313.176C27.272 311.896 27.944 311.128 29.288 310.872L76.52 300.792V300.408L29.288 290.328C27.944 290.072 27.272 289.304 27.272 288.024V279C27.272 277.4 28.008 276.76 29.48 277.08L86.984 291.96C88.328 292.28 89 293.048 89 294.264ZM89 231.146V262.538C89 263.882 88.328 264.554 86.984 264.554H29.288C27.944 264.554 27.272 263.882 27.272 262.538V231.146C27.272 229.866 27.944 229.226 29.288 229.226H35.816C37.16 229.226 37.832 229.866 37.832 231.146L37.832 251.21C37.832 251.978 38.184 252.362 38.888 252.362H51.368C52.072 252.362 52.424 251.978 52.424 251.21L52.424 234.794C52.424 233.45 53.096 232.778 54.44 232.778H60.968C62.312 232.778 62.984 233.45 62.984 234.794L62.984 251.21C62.984 251.978 63.336 252.362 64.04 252.362H77.384C78.088 252.362 78.44 251.978 78.44 251.21V231.146C78.44 229.866 79.112 229.226 80.456 229.226H86.984C88.328 229.226 89 229.866 89 231.146Z" fill="white"/>
<path d="M84.968 616.736L83.5372 615.338L83.5372 615.338L84.968 616.736ZM31.304 616.736L32.7348 615.338L32.7348 615.338L31.304 616.736ZM31.4 582.944L32.8142 584.358L32.8307 584.342L32.8467 584.325L31.4 582.944ZM39.176 592.256L40.5369 593.721L40.5912 593.671L40.6416 593.617L39.176 592.256ZM39.176 607.424L37.7618 608.838L37.7618 608.838L39.176 607.424ZM77.192 607.424L78.5529 608.889L78.6072 608.839L78.6576 608.785L77.192 607.424ZM77.192 592.256L78.6062 590.842L78.6062 590.842L77.192 592.256ZM84.968 582.944L86.3988 581.546L86.3984 581.546L84.968 582.944ZM87 594.56V605.024H91V594.56H87ZM87 605.024C87 609.727 85.7567 613.066 83.5372 615.338L86.3988 618.133C89.5553 614.902 91 610.432 91 605.024H87ZM83.5372 615.338C81.3332 617.595 78.0458 618.864 73.352 618.864V622.864C78.7702 622.864 83.2268 621.381 86.3988 618.133L83.5372 615.338ZM73.352 618.864H42.92V622.864H73.352V618.864ZM42.92 618.864C38.2262 618.864 34.9388 617.595 32.7348 615.338L29.8732 618.133C33.0452 621.381 37.5018 622.864 42.92 622.864V618.864ZM32.7348 615.338C30.5153 613.066 29.272 609.727 29.272 605.024H25.272C25.272 610.432 26.7167 614.902 29.8732 618.133L32.7348 615.338ZM29.272 605.024V594.56H25.272V605.024H29.272ZM29.272 594.56C29.272 589.941 30.5354 586.637 32.8142 584.358L29.9858 581.53C26.7606 584.755 25.272 589.194 25.272 594.56H29.272ZM32.8467 584.325C35.058 582.008 38.3118 580.72 42.92 580.72V576.72C37.5442 576.72 33.118 578.247 29.9533 581.563L32.8467 584.325ZM42.92 580.72H47.432V576.72H42.92V580.72ZM47.432 580.72C47.6233 580.72 47.7093 580.744 47.7235 580.749C47.7287 580.751 47.7152 580.747 47.69 580.732C47.6641 580.716 47.6329 580.693 47.6018 580.662C47.5706 580.631 47.5475 580.6 47.532 580.574C47.5169 580.549 47.5129 580.535 47.5146 580.54C47.5194 580.554 47.544 580.64 47.544 580.832H51.544C51.544 579.819 51.2896 578.693 50.4302 577.834C49.5709 576.974 48.4443 576.72 47.432 576.72V580.72ZM47.544 580.832V588.896H51.544V580.832H47.544ZM47.544 588.896C47.544 589.063 47.5215 589.125 47.5238 589.118C47.5256 589.113 47.5339 589.091 47.5537 589.06C47.5739 589.028 47.6012 588.993 47.635 588.961C47.6687 588.929 47.7007 588.907 47.725 588.893C47.7486 588.879 47.7591 588.877 47.7496 588.88C47.7396 588.883 47.7103 588.891 47.6568 588.899C47.6031 588.906 47.5292 588.912 47.432 588.912L47.432 592.912C48.4216 592.912 49.5351 592.677 50.3969 591.854C51.2762 591.015 51.544 589.9 51.544 588.896H47.544ZM47.432 588.912H43.496L43.496 592.912H47.432L47.432 588.912ZM43.496 588.912C41.2501 588.912 39.1101 589.387 37.7104 590.895L40.6416 593.617C40.9059 593.332 41.6459 592.912 43.496 592.912L43.496 588.912ZM37.8151 590.79C36.3077 592.19 35.832 594.33 35.832 596.576H39.832C39.832 594.726 40.2523 593.986 40.5369 593.721L37.8151 590.79ZM35.832 596.576V603.104H39.832V596.576H35.832ZM35.832 603.104C35.832 605.327 36.3255 607.402 37.7618 608.838L40.5902 606.01C40.2345 605.654 39.832 604.849 39.832 603.104H35.832ZM37.7618 608.838C39.1653 610.241 41.2819 610.672 43.496 610.672V606.672C41.6141 606.672 40.8507 606.27 40.5902 606.01L37.7618 608.838ZM43.496 610.672H72.776V606.672H43.496V610.672ZM72.776 610.672C75.0108 610.672 77.106 610.233 78.5529 608.889L75.8311 605.958C75.486 606.279 74.6372 606.672 72.776 606.672V610.672ZM78.6576 608.785C79.9926 607.347 80.44 605.295 80.44 603.104H76.44C76.44 604.88 76.0554 605.709 75.7264 606.063L78.6576 608.785ZM80.44 603.104V596.576H76.44V603.104H80.44ZM80.44 596.576C80.44 594.362 80.0097 592.245 78.6062 590.842L75.7778 593.67C76.0383 593.93 76.44 594.694 76.44 596.576H80.44ZM78.6062 590.842C77.1602 589.396 75.0412 588.912 72.776 588.912V592.912C74.6068 592.912 75.4318 593.324 75.7778 593.67L78.6062 590.842ZM72.776 588.912H68.84V592.912H72.776V588.912ZM68.84 588.912C68.7428 588.912 68.6689 588.906 68.6152 588.899C68.5617 588.891 68.5324 588.883 68.5224 588.88C68.5129 588.877 68.5234 588.879 68.547 588.893C68.5713 588.907 68.6033 588.929 68.637 588.961C68.6708 588.993 68.6981 589.028 68.7183 589.06C68.7381 589.091 68.7464 589.113 68.7482 589.118C68.7505 589.125 68.728 589.063 68.728 588.896H64.728C64.728 589.9 64.9958 591.015 65.875 591.854C66.7369 592.677 67.8504 592.912 68.84 592.912V588.912ZM68.728 588.896V580.832H64.728V588.896H68.728ZM68.728 580.832C68.728 580.64 68.7526 580.554 68.7574 580.54C68.7591 580.535 68.7551 580.549 68.74 580.574C68.7245 580.6 68.7014 580.631 68.6702 580.662C68.6391 580.693 68.6079 580.716 68.582 580.732C68.5568 580.747 68.5433 580.751 68.5485 580.749C68.5627 580.744 68.6487 580.72 68.84 580.72V576.72C67.8277 576.72 66.7011 576.974 65.8418 577.834C64.9824 578.693 64.728 579.819 64.728 580.832H68.728ZM68.84 580.72H73.352V576.72H68.84V580.72ZM73.352 580.72C77.9577 580.72 81.2564 582.007 83.5376 584.342L86.3984 581.546C83.1756 578.248 78.7303 576.72 73.352 576.72V580.72ZM83.5372 584.341C85.7611 586.618 87 589.928 87 594.56H91C91 589.207 89.5509 584.773 86.3988 581.546L83.5372 584.341ZM64.904 531.191L63.0572 531.959L63.5695 533.191H64.904V531.191ZM65.288 531.191V533.191H65.743L66.1532 532.995L65.288 531.191ZM86.696 520.919L85.9938 519.047L85.9107 519.078L85.8308 519.116L86.696 520.919ZM88.616 532.823L90.4049 533.718L90.4049 533.718L88.616 532.823ZM86.984 534.071L86.266 532.205L86.204 532.229L86.1438 532.257L86.984 534.071ZM66.248 543.671L65.4078 541.857L64.248 542.393V543.671H66.248ZM55.208 536.279L56.7194 534.97L56.6952 534.942L56.6701 534.915L55.208 536.279ZM39.176 536.279L37.7139 534.915L37.7139 534.915L39.176 536.279ZM87 553.271V561.431H91V553.271H87ZM87 561.431C87 561.517 86.9946 561.579 86.9886 561.621C86.9826 561.663 86.9766 561.681 86.9766 561.681C86.9769 561.68 86.9834 561.661 87.0015 561.631C87.0105 561.616 87.0217 561.599 87.0354 561.582C87.0492 561.564 87.0647 561.546 87.0818 561.529C87.0989 561.512 87.1165 561.497 87.1342 561.483C87.1519 561.469 87.1686 561.458 87.1835 561.449C87.2137 561.431 87.2327 561.424 87.2335 561.424C87.2338 561.424 87.2156 561.43 87.1737 561.436C87.1316 561.442 87.0694 561.447 86.984 561.447V565.447C87.9643 565.447 89.0669 565.201 89.9102 564.358C90.7536 563.514 91 562.412 91 561.431H87ZM86.984 561.447H29.288L29.288 565.447H86.984V561.447ZM29.288 561.447C29.2026 561.447 29.1404 561.442 29.0983 561.436C29.0564 561.43 29.0382 561.424 29.0385 561.424C29.0393 561.424 29.0583 561.431 29.0885 561.449C29.1034 561.458 29.1201 561.469 29.1378 561.483C29.1555 561.497 29.1731 561.512 29.1902 561.529C29.2073 561.546 29.2228 561.564 29.2366 561.582C29.2503 561.599 29.2615 561.616 29.2705 561.631C29.2886 561.661 29.2951 561.68 29.2954 561.681C29.2954 561.681 29.2894 561.663 29.2834 561.621C29.2774 561.579 29.272 561.517 29.272 561.431H25.272C25.272 562.412 25.5184 563.514 26.3618 564.358C27.2051 565.201 28.3077 565.447 29.288 565.447L29.288 561.447ZM29.272 561.431V538.583H25.272V561.431H29.272ZM29.272 538.583C29.272 533.967 30.5346 530.619 32.8304 528.269L29.9696 525.474C26.7614 528.756 25.272 533.216 25.272 538.583H29.272ZM32.8304 528.269C35.1116 525.935 38.4103 524.647 43.016 524.647V520.647C37.6377 520.647 33.1924 522.176 29.9696 525.474L32.8304 528.269ZM43.016 524.647H50.504V520.647H43.016V524.647ZM50.504 524.647C53.8648 524.647 56.4949 525.309 58.5075 526.504C60.4975 527.684 62.0204 529.465 63.0572 531.959L66.7508 530.424C65.4196 527.222 63.3585 524.731 60.5485 523.063C57.7611 521.41 54.3752 520.647 50.504 520.647V524.647ZM64.904 533.191H65.288V529.191H64.904V533.191ZM66.1532 532.995L87.5612 522.723L85.8308 519.116L64.4228 529.388L66.1532 532.995ZM87.3982 522.792C87.6503 522.698 87.7494 522.697 87.7318 522.697C87.7162 522.698 87.6573 522.697 87.5697 522.672C87.4786 522.647 87.3725 522.602 87.268 522.528C87.0454 522.37 86.9744 522.192 86.967 522.171C86.9656 522.166 87 522.272 87 522.551H91C91 521.556 90.7933 520.123 89.58 519.263C88.3518 518.393 86.9268 518.697 85.9938 519.047L87.3982 522.792ZM87 522.551V530.327H91V522.551H87ZM87 530.327C87 530.836 86.9713 531.225 86.9273 531.511C86.9055 531.653 86.8818 531.757 86.861 531.83C86.8398 531.904 86.8253 531.933 86.8271 531.929L90.4049 533.718C90.8804 532.767 91 531.537 91 530.327H87ZM86.8271 531.929C86.8593 531.865 86.8784 531.872 86.8011 531.931C86.7183 531.994 86.5545 532.094 86.266 532.205L87.702 535.938C88.7504 535.535 89.8297 534.868 90.4049 533.718L86.8271 531.929ZM86.1438 532.257L65.4078 541.857L67.0882 545.486L87.8242 535.886L86.1438 532.257ZM64.248 543.671V550.103H68.248V543.671H64.248ZM64.248 550.103C64.248 550.755 64.3936 551.616 65.0377 552.319C65.712 553.055 66.5968 553.255 67.304 553.255V549.255C67.3072 549.255 67.664 549.264 67.9863 549.616C68.2784 549.935 68.248 550.22 68.248 550.103H64.248ZM67.304 553.255H86.984V549.255H67.304V553.255ZM86.984 553.255C87.0694 553.255 87.1316 553.261 87.1737 553.267C87.2156 553.273 87.2338 553.279 87.2335 553.279C87.2327 553.279 87.2137 553.272 87.1835 553.254C87.1686 553.245 87.1519 553.234 87.1342 553.22C87.1165 553.206 87.0989 553.191 87.0818 553.174C87.0647 553.157 87.0492 553.139 87.0354 553.121C87.0217 553.104 87.0105 553.087 87.0015 553.072C86.9834 553.042 86.9769 553.023 86.9766 553.022C86.9766 553.022 86.9826 553.04 86.9886 553.082C86.9946 553.124 87 553.186 87 553.271H91C91 552.291 90.7536 551.189 89.9102 550.345C89.0669 549.502 87.9643 549.255 86.984 549.255V553.255ZM58.456 550.199V540.791H54.456V550.199H58.456ZM58.456 540.791C58.456 538.539 58.0099 536.459 56.7194 534.97L53.6966 537.589C54.0701 538.02 54.456 538.948 54.456 540.791H58.456ZM56.6701 534.915C55.2497 533.393 53.1999 532.839 50.984 532.839V536.839C52.6081 536.839 53.3743 537.246 53.7459 537.644L56.6701 534.915ZM50.984 532.839H43.496V536.839H50.984V532.839ZM43.496 532.839C41.2397 532.839 39.1451 533.381 37.7139 534.915L40.6381 537.644C40.9989 537.258 41.7843 536.839 43.496 536.839V532.839ZM37.7139 534.915C36.3226 536.405 35.832 538.51 35.832 540.791H39.832C39.832 538.977 40.2373 538.074 40.6381 537.644L37.7139 534.915ZM35.832 540.791V550.199H39.832V540.791H35.832ZM35.832 550.199C35.832 550.86 35.9984 551.722 36.6818 552.406C37.3651 553.089 38.2277 553.255 38.888 553.255V549.255C38.8443 549.255 39.1788 549.246 39.5102 549.577C39.8416 549.909 39.832 550.243 39.832 550.199H35.832ZM38.888 553.255H55.4V549.255H38.888V553.255ZM55.4 553.255C56.0603 553.255 56.9229 553.089 57.6062 552.406C58.2896 551.722 58.456 550.86 58.456 550.199H54.456C54.456 550.243 54.4464 549.909 54.7778 549.577C55.1091 549.246 55.4437 549.255 55.4 549.255V553.255ZM87 472.74V504.132H91V472.74H87ZM87 504.132C87 504.217 86.9946 504.279 86.9886 504.321C86.9826 504.363 86.9766 504.381 86.9766 504.381C86.9769 504.38 86.9834 504.361 87.0015 504.331C87.0105 504.316 87.0217 504.299 87.0354 504.282C87.0492 504.264 87.0647 504.246 87.0818 504.229C87.0989 504.212 87.1165 504.197 87.1342 504.183C87.1519 504.169 87.1686 504.158 87.1835 504.149C87.2137 504.131 87.2327 504.124 87.2335 504.124C87.2338 504.124 87.2156 504.13 87.1737 504.136C87.1316 504.142 87.0694 504.148 86.984 504.148V508.148C87.9643 508.148 89.0669 507.901 89.9102 507.058C90.7536 506.214 91 505.112 91 504.132H87ZM86.984 504.148H29.288L29.288 508.148H86.984V504.148ZM29.288 504.148C29.2026 504.148 29.1404 504.142 29.0983 504.136C29.0564 504.13 29.0382 504.124 29.0385 504.124C29.0393 504.124 29.0583 504.131 29.0885 504.149C29.1034 504.158 29.1201 504.169 29.1378 504.183C29.1555 504.197 29.1731 504.212 29.1902 504.229C29.2073 504.246 29.2228 504.264 29.2366 504.282C29.2503 504.299 29.2615 504.316 29.2705 504.331C29.2886 504.361 29.2951 504.38 29.2954 504.381C29.2954 504.381 29.2894 504.363 29.2834 504.321C29.2774 504.279 29.272 504.217 29.272 504.132H25.272C25.272 505.112 25.5184 506.214 26.3618 507.058C27.2051 507.901 28.3077 508.148 29.288 508.148L29.288 504.148ZM29.272 504.132V472.74H25.272V504.132H29.272ZM29.272 472.74C29.272 472.666 29.2769 472.616 29.2814 472.586C29.2859 472.556 29.2895 472.55 29.2857 472.56C29.2817 472.572 29.2707 472.599 29.2477 472.636C29.2243 472.673 29.1932 472.712 29.1553 472.748C29.1175 472.784 29.081 472.809 29.0518 472.826C29.0233 472.842 29.0075 472.847 29.0112 472.846C29.0154 472.844 29.0384 472.838 29.0851 472.831C29.132 472.825 29.1986 472.82 29.288 472.82V468.82C28.3314 468.82 27.2426 469.046 26.3967 469.851C25.5325 470.674 25.272 471.766 25.272 472.74H29.272ZM29.288 472.82H35.816V468.82H29.288V472.82ZM35.816 472.82C35.9054 472.82 35.972 472.825 36.0189 472.831C36.0656 472.838 36.0886 472.844 36.0928 472.846C36.0965 472.847 36.0807 472.842 36.0522 472.826C36.023 472.809 35.9865 472.784 35.9487 472.748C35.9107 472.712 35.8797 472.673 35.8563 472.636C35.8333 472.599 35.8223 472.572 35.8183 472.56C35.8145 472.55 35.8181 472.556 35.8226 472.586C35.8271 472.616 35.832 472.666 35.832 472.74H39.832C39.832 471.766 39.5715 470.674 38.7073 469.851C37.8614 469.046 36.7726 468.82 35.816 468.82V472.82ZM35.832 472.74L35.832 492.804H39.832L39.832 472.74H35.832ZM35.832 492.804C35.832 493.455 35.9776 494.316 36.6217 495.019C37.296 495.755 38.1808 495.956 38.888 495.956V491.956C38.8912 491.956 39.248 491.964 39.5703 492.316C39.8624 492.635 39.832 492.92 39.832 492.804H35.832ZM38.888 495.956H51.368V491.956H38.888V495.956ZM51.368 495.956C52.0752 495.956 52.96 495.755 53.6343 495.019C54.2784 494.316 54.424 493.455 54.424 492.804H50.424C50.424 492.92 50.3936 492.635 50.6857 492.316C51.008 491.964 51.3648 491.956 51.368 491.956V495.956ZM54.424 492.804V476.388H50.424V492.804H54.424ZM54.424 476.388C54.424 476.302 54.4294 476.24 54.4354 476.198C54.4414 476.156 54.4474 476.138 54.4474 476.138C54.4471 476.139 54.4406 476.158 54.4225 476.188C54.4135 476.203 54.4023 476.22 54.3886 476.237C54.3748 476.255 54.3593 476.273 54.3422 476.29C54.3251 476.307 54.3075 476.322 54.2898 476.336C54.2721 476.35 54.2554 476.361 54.2405 476.37C54.2103 476.388 54.1913 476.395 54.1905 476.395C54.1902 476.395 54.2084 476.389 54.2503 476.383C54.2924 476.377 54.3546 476.372 54.44 476.372L54.44 472.372C53.4597 472.372 52.3571 472.618 51.5138 473.461C50.6704 474.305 50.424 475.407 50.424 476.388H54.424ZM54.44 476.372H60.968L60.968 472.372H54.44L54.44 476.372ZM60.968 476.372C61.0534 476.372 61.1156 476.377 61.1577 476.383C61.1996 476.389 61.2178 476.395 61.2175 476.395C61.2167 476.395 61.1977 476.388 61.1675 476.37C61.1526 476.361 61.1359 476.35 61.1182 476.336C61.1005 476.322 61.0829 476.307 61.0658 476.29C61.0487 476.273 61.0332 476.255 61.0194 476.237C61.0057 476.22 60.9945 476.203 60.9855 476.188C60.9674 476.158 60.9609 476.139 60.9606 476.138C60.9606 476.138 60.9666 476.156 60.9726 476.198C60.9786 476.24 60.984 476.302 60.984 476.388H64.984C64.984 475.407 64.7376 474.305 63.8942 473.461C63.0509 472.618 61.9483 472.372 60.968 472.372L60.968 476.372ZM60.984 476.388V492.804H64.984V476.388H60.984ZM60.984 492.804C60.984 493.455 61.1296 494.316 61.7737 495.019C62.448 495.755 63.3328 495.956 64.04 495.956V491.956C64.0432 491.956 64.4 491.964 64.7223 492.316C65.0144 492.635 64.984 492.92 64.984 492.804H60.984ZM64.04 495.956H77.384V491.956H64.04V495.956ZM77.384 495.956C78.0912 495.956 78.976 495.755 79.6503 495.019C80.2944 494.316 80.44 493.455 80.44 492.804H76.44C76.44 492.92 76.4096 492.635 76.7017 492.316C77.024 491.964 77.3808 491.956 77.384 491.956V495.956ZM80.44 492.804V472.74H76.44V492.804H80.44ZM80.44 472.74C80.44 472.666 80.4449 472.616 80.4494 472.586C80.4539 472.556 80.4575 472.55 80.4537 472.56C80.4497 472.572 80.4387 472.599 80.4157 472.636C80.3923 472.673 80.3612 472.712 80.3233 472.748C80.2855 472.784 80.249 472.809 80.2198 472.826C80.1913 472.842 80.1755 472.847 80.1792 472.846C80.1834 472.844 80.2064 472.838 80.2531 472.831C80.3 472.825 80.3666 472.82 80.456 472.82V468.82C79.4994 468.82 78.4106 469.046 77.5647 469.851C76.7005 470.674 76.44 471.766 76.44 472.74H80.44ZM80.456 472.82H86.984V468.82H80.456V472.82ZM86.984 472.82C87.0734 472.82 87.14 472.825 87.1869 472.831C87.2336 472.838 87.2566 472.844 87.2608 472.846C87.2645 472.847 87.2487 472.842 87.2202 472.826C87.191 472.809 87.1545 472.784 87.1167 472.748C87.0788 472.712 87.0477 472.673 87.0243 472.636C87.0013 472.599 86.9903 472.572 86.9863 472.56C86.9825 472.55 86.9861 472.556 86.9906 472.586C86.9951 472.616 87 472.666 87 472.74H91C91 471.766 90.7395 470.674 89.8753 469.851C89.0294 469.046 87.9406 468.82 86.984 468.82V472.82ZM86.984 459.346L87.5334 457.423L87.513 457.417L87.4925 457.412L86.984 459.346ZM29.288 444.178L28.6555 446.075L28.7169 446.096L28.7795 446.112L29.288 444.178ZM29.288 425.65L29.7512 427.596L29.7739 427.59L29.7965 427.584L29.288 425.65ZM86.984 410.482L87.4925 412.416L87.513 412.411L87.5334 412.405L86.984 410.482ZM88.616 422.29L89.8654 423.852L89.9519 423.783L90.0302 423.704L88.616 422.29ZM86.984 422.866L86.6552 420.893L86.5722 420.907L86.4906 420.928L86.984 422.866ZM76.424 425.554L75.9306 423.616L74.424 423.999V425.554H76.424ZM76.424 444.274H74.424V445.829L75.9306 446.212L76.424 444.274ZM86.984 446.962L86.4906 448.9L86.5722 448.921L86.6552 448.935L86.984 446.962ZM88.616 447.634L90.0302 446.22L90.0302 446.22L88.616 447.634ZM38.888 435.058H36.888V436.621L38.4045 436.999L38.888 435.058ZM66.632 441.97L66.1485 443.911L68.632 444.529V441.97H66.632ZM66.632 427.762H68.632V425.203L66.1485 425.821L66.632 427.762ZM38.888 434.674L38.4045 432.733L36.888 433.111V434.674H38.888ZM87 448.978V458.194H91V448.978H87ZM87 458.194C87 458.303 86.9819 458.249 87.0417 458.112C87.1148 457.945 87.267 457.745 87.5037 457.61C87.6086 457.55 87.7016 457.519 87.7669 457.504C87.799 457.497 87.824 457.493 87.8404 457.492C87.8569 457.49 87.8657 457.49 87.866 457.49C87.8663 457.49 87.8593 457.49 87.8443 457.489C87.8293 457.487 87.8076 457.485 87.7788 457.48C87.7202 457.471 87.6392 457.453 87.5334 457.423L86.4346 461.269C87.2425 461.5 88.4258 461.69 89.4883 461.082C90.7207 460.378 91 459.105 91 458.194H87ZM87.4925 457.412L29.7965 442.244L28.7795 446.112L86.4755 461.28L87.4925 457.412ZM29.9205 442.281C29.5684 442.163 29.4564 442.035 29.4145 441.975C29.3679 441.909 29.272 441.729 29.272 441.298H25.272C25.272 442.339 25.5121 443.375 26.1375 444.269C26.7676 445.169 27.6636 445.745 28.6555 446.075L29.9205 442.281ZM29.272 441.298V428.53H25.272V441.298H29.272ZM29.272 428.53C29.272 427.994 29.3857 427.798 29.4145 427.757C29.4207 427.748 29.4654 427.664 29.7512 427.596L28.8248 423.704C27.7666 423.956 26.8033 424.512 26.1375 425.463C25.4943 426.382 25.272 427.466 25.272 428.53H29.272ZM29.7965 427.584L87.4925 412.416L86.4755 408.548L28.7795 423.716L29.7965 427.584ZM87.5334 412.405C87.6392 412.375 87.7202 412.357 87.7788 412.348C87.8076 412.343 87.8293 412.341 87.8443 412.339C87.8593 412.338 87.8663 412.338 87.866 412.338C87.8657 412.338 87.8569 412.338 87.8404 412.336C87.824 412.335 87.799 412.331 87.7668 412.324C87.7016 412.309 87.6086 412.278 87.5037 412.218C87.267 412.083 87.1148 411.883 87.0417 411.716C86.9819 411.579 87 411.525 87 411.634H91C91 410.723 90.7207 409.45 89.4883 408.746C88.4259 408.138 87.2425 408.328 86.4346 408.559L87.5334 412.405ZM87 411.634V420.85H91V411.634H87ZM87 420.85C87 420.967 86.9946 421.056 86.9876 421.121C86.9805 421.187 86.9727 421.218 86.9715 421.223C86.9703 421.227 86.9791 421.192 87.0108 421.131C87.0434 421.068 87.1027 420.975 87.2018 420.876L90.0302 423.704C90.8872 422.847 91 421.644 91 420.85H87ZM87.3666 420.728C87.4371 420.672 87.4423 420.691 87.3024 420.74C87.1703 420.787 86.9615 420.842 86.6552 420.893L87.3128 424.839C88.1648 424.697 89.1322 424.438 89.8654 423.852L87.3666 420.728ZM86.4906 420.928L75.9306 423.616L76.9174 427.492L87.4774 424.804L86.4906 420.928ZM74.424 425.554V444.274H78.424V425.554H74.424ZM75.9306 446.212L86.4906 448.9L87.4774 445.024L76.9174 442.336L75.9306 446.212ZM86.6552 448.935C86.9354 448.981 87.11 449.036 87.2065 449.075C87.3042 449.116 87.2754 449.122 87.2018 449.048L90.0302 446.22C89.2701 445.46 88.2275 445.142 87.3128 444.989L86.6552 448.935ZM87.2018 449.048C87.0301 448.877 86.9842 448.723 86.981 448.711C86.9788 448.704 86.9841 448.72 86.9897 448.768C86.9952 448.815 87 448.883 87 448.978H91C91 448.183 90.8621 447.052 90.0302 446.22L87.2018 449.048ZM38.4045 436.999L66.1485 443.911L67.1155 440.029L39.3715 433.117L38.4045 436.999ZM68.632 441.97V427.762H64.632V441.97H68.632ZM66.1485 425.821L38.4045 432.733L39.3715 436.615L67.1155 429.703L66.1485 425.821ZM36.888 434.674V435.058H40.888V434.674H36.888ZM87 378.069V386.133H91V378.069H87ZM87 386.133C87 386.23 86.9942 386.304 86.9868 386.357C86.9795 386.411 86.9713 386.44 86.9681 386.45C86.9651 386.46 86.9675 386.449 86.981 386.426C86.9949 386.401 87.0172 386.369 87.0493 386.336C87.0816 386.302 87.116 386.274 87.1482 386.254C87.1796 386.234 87.2014 386.226 87.2066 386.224C87.2134 386.222 87.151 386.245 86.984 386.245V390.245C87.9886 390.245 89.1035 389.977 89.9427 389.097C90.7654 388.236 91 387.122 91 386.133H87ZM86.984 386.245H38.888V390.245H86.984V386.245ZM38.888 386.245C38.2277 386.245 37.3651 386.411 36.6818 387.094C35.9984 387.778 35.832 388.64 35.832 389.301H39.832C39.832 389.257 39.8416 389.591 39.5102 389.923C39.1788 390.254 38.8443 390.245 38.888 390.245V386.245ZM35.832 389.301V400.245H39.832V389.301H35.832ZM35.832 400.245C35.832 400.33 35.8266 400.392 35.8206 400.434C35.8146 400.476 35.8086 400.494 35.8086 400.494C35.8089 400.493 35.8154 400.474 35.8335 400.444C35.8425 400.429 35.8537 400.412 35.8674 400.395C35.8812 400.377 35.8967 400.359 35.9138 400.342C35.9309 400.325 35.9485 400.31 35.9662 400.296C35.9839 400.282 36.0006 400.271 36.0155 400.262C36.0457 400.244 36.0647 400.237 36.0655 400.237C36.0658 400.237 36.0476 400.243 36.0057 400.249C35.9636 400.255 35.9014 400.261 35.816 400.261V404.261C36.7963 404.261 37.8989 404.014 38.7422 403.171C39.5856 402.327 39.832 401.225 39.832 400.245H35.832ZM35.816 400.261H29.288V404.261H35.816V400.261ZM29.288 400.261C29.2026 400.261 29.1404 400.255 29.0983 400.249C29.0564 400.243 29.0382 400.237 29.0385 400.237C29.0393 400.237 29.0583 400.244 29.0885 400.262C29.1034 400.271 29.1201 400.282 29.1378 400.296C29.1555 400.31 29.1731 400.325 29.1902 400.342C29.2073 400.359 29.2228 400.377 29.2366 400.395C29.2503 400.412 29.2615 400.429 29.2705 400.444C29.2886 400.474 29.2951 400.493 29.2954 400.494C29.2954 400.494 29.2894 400.476 29.2834 400.434C29.2774 400.392 29.272 400.33 29.272 400.245H25.272C25.272 401.225 25.5184 402.327 26.3618 403.171C27.2051 404.014 28.3077 404.261 29.288 404.261V400.261ZM29.272 400.245L29.272 363.957H25.272L25.272 400.245H29.272ZM29.272 363.957C29.272 363.871 29.2774 363.809 29.2834 363.767C29.2894 363.725 29.2954 363.707 29.2954 363.707C29.2951 363.708 29.2886 363.727 29.2705 363.757C29.2615 363.772 29.2503 363.789 29.2366 363.806C29.2228 363.824 29.2073 363.842 29.1902 363.859C29.1731 363.876 29.1555 363.891 29.1378 363.905C29.1201 363.919 29.1034 363.93 29.0885 363.939C29.0583 363.957 29.0393 363.964 29.0385 363.964C29.0382 363.964 29.0564 363.958 29.0983 363.952C29.1404 363.946 29.2026 363.941 29.288 363.941V359.941C28.3077 359.941 27.2051 360.187 26.3618 361.03C25.5184 361.874 25.272 362.976 25.272 363.957H29.272ZM29.288 363.941H35.816V359.941H29.288V363.941ZM35.816 363.941C35.9014 363.941 35.9636 363.946 36.0057 363.952C36.0476 363.958 36.0658 363.964 36.0655 363.964C36.0647 363.964 36.0457 363.957 36.0155 363.939C36.0006 363.93 35.9839 363.919 35.9662 363.905C35.9485 363.891 35.9309 363.876 35.9138 363.859C35.8967 363.842 35.8812 363.824 35.8674 363.806C35.8537 363.789 35.8425 363.772 35.8335 363.757C35.8154 363.727 35.8089 363.708 35.8086 363.707C35.8086 363.707 35.8146 363.725 35.8206 363.767C35.8266 363.809 35.832 363.871 35.832 363.957H39.832C39.832 362.976 39.5856 361.874 38.7422 361.03C37.8989 360.187 36.7963 359.941 35.816 359.941V363.941ZM35.832 363.957V374.901H39.832V363.957H35.832ZM35.832 374.901C35.832 375.552 35.9776 376.413 36.6217 377.116C37.296 377.852 38.1808 378.053 38.888 378.053V374.053C38.8912 374.053 39.248 374.061 39.5703 374.413C39.8624 374.732 39.832 375.017 39.832 374.901H35.832ZM38.888 378.053H86.984V374.053H38.888V378.053ZM86.984 378.053C87.0694 378.053 87.1316 378.058 87.1737 378.064C87.2156 378.07 87.2338 378.076 87.2335 378.076C87.2327 378.076 87.2137 378.069 87.1835 378.051C87.1686 378.042 87.1519 378.031 87.1342 378.017C87.1165 378.003 87.0989 377.988 87.0818 377.971C87.0647 377.954 87.0492 377.936 87.0354 377.918C87.0217 377.901 87.0105 377.884 87.0015 377.869C86.9834 377.839 86.9769 377.82 86.9766 377.819C86.9766 377.819 86.9826 377.837 86.9886 377.879C86.9946 377.921 87 377.983 87 378.069H91C91 377.088 90.7536 375.986 89.9102 375.142C89.0669 374.299 87.9643 374.053 86.984 374.053V378.053ZM29.288 339.138H86.984V335.138H29.288V339.138ZM86.984 339.138C87.0694 339.138 87.1316 339.143 87.1737 339.149C87.2156 339.155 87.2338 339.161 87.2335 339.161C87.2327 339.161 87.2137 339.155 87.1835 339.136C87.1686 339.128 87.1519 339.116 87.1342 339.103C87.1165 339.089 87.0989 339.073 87.0818 339.056C87.0647 339.039 87.0492 339.021 87.0354 339.004C87.0217 338.986 87.0105 338.969 87.0015 338.954C86.9834 338.924 86.9769 338.905 86.9766 338.904C86.9766 338.904 86.9826 338.922 86.9886 338.964C86.9946 339.006 87 339.069 87 339.154H91C91 338.174 90.7536 337.071 89.9102 336.228C89.0669 335.384 87.9643 335.138 86.984 335.138V339.138ZM87 339.154V347.314H91V339.154H87ZM87 347.314C87 347.399 86.9946 347.462 86.9886 347.504C86.9826 347.546 86.9766 347.564 86.9766 347.564C86.9769 347.563 86.9834 347.544 87.0015 347.513C87.0105 347.499 87.0217 347.482 87.0354 347.464C87.0492 347.447 87.0647 347.429 87.0818 347.412C87.0989 347.395 87.1165 347.379 87.1342 347.365C87.1519 347.352 87.1686 347.34 87.1835 347.332C87.2137 347.313 87.2327 347.307 87.2335 347.307C87.2338 347.307 87.2156 347.313 87.1737 347.319C87.1316 347.325 87.0694 347.33 86.984 347.33V351.33C87.9643 351.33 89.0669 351.084 89.9102 350.24C90.7536 349.397 91 348.294 91 347.314H87ZM86.984 347.33H29.288V351.33H86.984V347.33ZM29.288 347.33C29.2026 347.33 29.1404 347.325 29.0983 347.319C29.0564 347.313 29.0382 347.307 29.0385 347.307C29.0393 347.307 29.0583 347.313 29.0885 347.332C29.1034 347.34 29.1201 347.352 29.1378 347.365C29.1555 347.379 29.1731 347.395 29.1902 347.412C29.2073 347.429 29.2228 347.447 29.2366 347.464C29.2503 347.482 29.2615 347.499 29.2705 347.513C29.2886 347.544 29.2951 347.563 29.2954 347.564C29.2954 347.564 29.2894 347.546 29.2834 347.504C29.2774 347.462 29.272 347.399 29.272 347.314H25.272C25.272 348.294 25.5184 349.397 26.3618 350.24C27.2051 351.084 28.3077 351.33 29.288 351.33V347.33ZM29.272 347.314V339.154H25.272V347.314H29.272ZM29.272 339.154C29.272 339.069 29.2774 339.006 29.2834 338.964C29.2894 338.922 29.2954 338.904 29.2954 338.904C29.2951 338.905 29.2886 338.924 29.2705 338.954C29.2615 338.969 29.2503 338.986 29.2366 339.004C29.2228 339.021 29.2073 339.039 29.1902 339.056C29.1731 339.073 29.1555 339.089 29.1378 339.103C29.1201 339.116 29.1034 339.128 29.0885 339.136C29.0583 339.155 29.0393 339.161 29.0385 339.161C29.0382 339.161 29.0564 339.155 29.0983 339.149C29.1404 339.143 29.2026 339.138 29.288 339.138V335.138C28.3077 335.138 27.2051 335.384 26.3618 336.228C25.5184 337.071 25.272 338.174 25.272 339.154H29.272ZM86.984 309.24L86.6098 307.276L86.5459 307.288L86.483 307.304L86.984 309.24ZM29.48 324.12L28.979 322.184L28.9381 322.195L28.8977 322.207L29.48 324.12ZM29.288 310.872L29.6622 312.837L29.6839 312.833L29.7054 312.828L29.288 310.872ZM76.52 300.792L76.9374 302.748L78.52 302.41L78.52 300.792H76.52ZM76.52 300.408H78.52V298.79L76.9374 298.452L76.52 300.408ZM29.288 290.328L29.7054 288.372L29.6839 288.368L29.6622 288.364L29.288 290.328ZM29.48 277.08L29.981 275.144L29.9431 275.134L29.9049 275.126L29.48 277.08ZM86.984 291.96L86.483 293.896L86.5018 293.901L86.5208 293.906L86.984 291.96ZM87 294.264L87 306.84H91L91 294.264H87ZM87 306.84C87 307.179 86.9199 307.215 86.9646 307.162C87.0057 307.113 86.9708 307.207 86.6098 307.276L87.3582 311.205C88.3412 311.018 89.3143 310.584 90.0274 309.735C90.7441 308.881 91 307.845 91 306.84H87ZM86.483 307.304L28.979 322.184L29.981 326.056L87.485 311.176L86.483 307.304ZM28.8977 322.207C28.6858 322.271 28.6305 322.255 28.6873 322.26C28.7219 322.263 28.79 322.273 28.8773 322.308C28.9669 322.344 29.0566 322.398 29.1364 322.467C29.2994 322.609 29.3312 322.735 29.3199 322.699C29.306 322.654 29.272 322.504 29.272 322.2H25.272C25.272 323.223 25.4671 324.577 26.5116 325.485C27.651 326.476 29.0663 326.337 30.0623 326.034L28.8977 322.207ZM29.272 322.2V313.176H25.272V322.2H29.272ZM29.272 313.176C29.272 313.029 29.2914 312.957 29.2983 312.936C29.3033 312.921 29.2999 312.936 29.2812 312.957C29.2368 313.008 29.28 312.91 29.6622 312.837L28.9138 308.908C27.952 309.091 26.9872 309.505 26.2708 310.323C25.5409 311.157 25.272 312.179 25.272 313.176H29.272ZM29.7054 312.828L76.9374 302.748L76.1026 298.836L28.8706 308.916L29.7054 312.828ZM78.52 300.792V300.408H74.52V300.792H78.52ZM76.9374 298.452L29.7054 288.372L28.8706 292.284L76.1026 302.364L76.9374 298.452ZM29.6622 288.364C29.28 288.291 29.2368 288.193 29.2812 288.243C29.2999 288.265 29.3033 288.28 29.2983 288.265C29.2914 288.244 29.272 288.171 29.272 288.024H25.272C25.272 289.021 25.5409 290.043 26.2708 290.877C26.9872 291.696 27.952 292.11 28.9138 292.293L29.6622 288.364ZM29.272 288.024V279H25.272V288.024H29.272ZM29.272 279C29.272 278.876 29.2792 278.781 29.2884 278.713C29.2977 278.645 29.3078 278.612 29.3101 278.605C29.3121 278.598 29.3045 278.624 29.2768 278.668C29.2479 278.714 29.2023 278.772 29.1364 278.829C29.0699 278.887 28.9988 278.93 28.932 278.959C28.8669 278.988 28.8193 278.997 28.8009 279C28.7836 279.002 28.7938 278.999 28.8385 279.001C28.8832 279.004 28.9543 279.013 29.0551 279.035L29.9049 275.126C28.8963 274.907 27.5706 274.89 26.5116 275.811C25.4933 276.697 25.272 277.982 25.272 279H29.272ZM28.979 279.016L86.483 293.896L87.485 290.024L29.981 275.144L28.979 279.016ZM86.5208 293.906C86.929 294.003 87.0102 294.115 86.9908 294.093C86.9815 294.083 86.9776 294.072 86.9797 294.078C86.9835 294.089 87 294.144 87 294.264H91C91 293.269 90.7151 292.275 90.0012 291.459C89.3098 290.669 88.383 290.237 87.4472 290.015L86.5208 293.906ZM87 231.146V262.538H91V231.146H87ZM87 262.538C87 262.623 86.9946 262.685 86.9886 262.727C86.9826 262.769 86.9766 262.788 86.9766 262.787C86.9769 262.786 86.9834 262.767 87.0015 262.737C87.0105 262.722 87.0217 262.706 87.0354 262.688C87.0492 262.67 87.0647 262.653 87.0818 262.636C87.0989 262.618 87.1165 262.603 87.1342 262.589C87.1519 262.575 87.1686 262.564 87.1835 262.555C87.2137 262.537 87.2327 262.531 87.2335 262.53C87.2338 262.53 87.2156 262.536 87.1737 262.542C87.1316 262.548 87.0694 262.554 86.984 262.554V266.554C87.9643 266.554 89.0669 266.307 89.9102 265.464C90.7536 264.621 91 263.518 91 262.538H87ZM86.984 262.554H29.288V266.554H86.984V262.554ZM29.288 262.554C29.2026 262.554 29.1404 262.548 29.0983 262.542C29.0564 262.536 29.0382 262.53 29.0385 262.53C29.0393 262.531 29.0583 262.537 29.0885 262.555C29.1034 262.564 29.1201 262.575 29.1378 262.589C29.1555 262.603 29.1731 262.618 29.1902 262.636C29.2073 262.653 29.2228 262.67 29.2366 262.688C29.2503 262.706 29.2615 262.722 29.2705 262.737C29.2886 262.767 29.2951 262.786 29.2954 262.787C29.2954 262.788 29.2894 262.769 29.2834 262.727C29.2774 262.685 29.272 262.623 29.272 262.538H25.272C25.272 263.518 25.5184 264.621 26.3618 265.464C27.2051 266.307 28.3077 266.554 29.288 266.554V262.554ZM29.272 262.538V231.146H25.272V262.538H29.272ZM29.272 231.146C29.272 231.073 29.2769 231.023 29.2814 230.992C29.2859 230.963 29.2895 230.956 29.2857 230.966C29.2817 230.978 29.2707 231.005 29.2477 231.042C29.2243 231.079 29.1932 231.118 29.1553 231.154C29.1175 231.19 29.081 231.216 29.0518 231.232C29.0233 231.248 29.0075 231.253 29.0112 231.252C29.0154 231.251 29.0384 231.244 29.0851 231.238C29.132 231.231 29.1986 231.226 29.288 231.226V227.226C28.3314 227.226 27.2426 227.452 26.3967 228.257C25.5325 229.08 25.272 230.172 25.272 231.146H29.272ZM29.288 231.226H35.816V227.226H29.288V231.226ZM35.816 231.226C35.9054 231.226 35.972 231.231 36.0189 231.238C36.0656 231.244 36.0886 231.251 36.0928 231.252C36.0965 231.253 36.0807 231.248 36.0522 231.232C36.023 231.216 35.9865 231.19 35.9487 231.154C35.9107 231.118 35.8797 231.079 35.8563 231.042C35.8333 231.005 35.8223 230.978 35.8183 230.966C35.8145 230.956 35.8181 230.963 35.8226 230.992C35.8271 231.023 35.832 231.073 35.832 231.146H39.832C39.832 230.172 39.5715 229.08 38.7073 228.257C37.8614 227.452 36.7726 227.226 35.816 227.226V231.226ZM35.832 231.146L35.832 251.21H39.832L39.832 231.146H35.832ZM35.832 251.21C35.832 251.861 35.9776 252.723 36.6217 253.425C37.296 254.161 38.1808 254.362 38.888 254.362V250.362C38.8912 250.362 39.248 250.371 39.5703 250.722C39.8624 251.041 39.832 251.327 39.832 251.21H35.832ZM38.888 254.362H51.368V250.362H38.888V254.362ZM51.368 254.362C52.0752 254.362 52.96 254.161 53.6343 253.425C54.2784 252.723 54.424 251.861 54.424 251.21H50.424C50.424 251.327 50.3936 251.041 50.6857 250.722C51.008 250.371 51.3648 250.362 51.368 250.362V254.362ZM54.424 251.21L54.424 234.794H50.424L50.424 251.21H54.424ZM54.424 234.794C54.424 234.708 54.4294 234.646 54.4354 234.604C54.4414 234.562 54.4474 234.544 54.4474 234.544C54.4471 234.545 54.4406 234.564 54.4225 234.594C54.4135 234.609 54.4023 234.626 54.3886 234.644C54.3748 234.661 54.3593 234.679 54.3422 234.696C54.3251 234.713 54.3075 234.729 54.2898 234.742C54.2721 234.756 54.2554 234.767 54.2405 234.776C54.2103 234.794 54.1913 234.801 54.1905 234.801C54.1902 234.801 54.2084 234.795 54.2503 234.789C54.2924 234.783 54.3546 234.778 54.44 234.778V230.778C53.4597 230.778 52.3571 231.024 51.5138 231.868C50.6704 232.711 50.424 233.813 50.424 234.794H54.424ZM54.44 234.778H60.968V230.778H54.44V234.778ZM60.968 234.778C61.0534 234.778 61.1156 234.783 61.1577 234.789C61.1996 234.795 61.2178 234.801 61.2175 234.801C61.2167 234.801 61.1977 234.794 61.1675 234.776C61.1526 234.767 61.1359 234.756 61.1182 234.742C61.1005 234.729 61.0829 234.713 61.0658 234.696C61.0487 234.679 61.0332 234.661 61.0194 234.644C61.0057 234.626 60.9945 234.609 60.9855 234.594C60.9674 234.564 60.9609 234.545 60.9606 234.544C60.9606 234.544 60.9666 234.562 60.9726 234.604C60.9786 234.646 60.984 234.708 60.984 234.794H64.984C64.984 233.813 64.7376 232.711 63.8942 231.868C63.0509 231.024 61.9483 230.778 60.968 230.778V234.778ZM60.984 234.794L60.984 251.21H64.984V234.794H60.984ZM60.984 251.21C60.984 251.861 61.1296 252.723 61.7737 253.425C62.448 254.161 63.3328 254.362 64.04 254.362V250.362C64.0432 250.362 64.4 250.371 64.7223 250.722C65.0144 251.041 64.984 251.327 64.984 251.21H60.984ZM64.04 254.362H77.384V250.362H64.04V254.362ZM77.384 254.362C78.0912 254.362 78.976 254.161 79.6503 253.425C80.2944 252.723 80.44 251.861 80.44 251.21H76.44C76.44 251.327 76.4096 251.041 76.7017 250.722C77.024 250.371 77.3808 250.362 77.384 250.362V254.362ZM80.44 251.21V231.146H76.44V251.21H80.44ZM80.44 231.146C80.44 231.073 80.4449 231.023 80.4494 230.992C80.4539 230.963 80.4575 230.956 80.4537 230.966C80.4497 230.978 80.4387 231.005 80.4157 231.042C80.3923 231.079 80.3612 231.118 80.3233 231.154C80.2855 231.19 80.249 231.216 80.2198 231.232C80.1913 231.249 80.1755 231.253 80.1792 231.252C80.1834 231.251 80.2064 231.244 80.2531 231.238C80.3 231.231 80.3666 231.226 80.456 231.226V227.226C79.4994 227.226 78.4106 227.452 77.5647 228.257C76.7005 229.08 76.44 230.172 76.44 231.146H80.44ZM80.456 231.226H86.984V227.226H80.456V231.226ZM86.984 231.226C87.0734 231.226 87.14 231.231 87.1869 231.238C87.2336 231.244 87.2566 231.251 87.2608 231.252C87.2645 231.253 87.2487 231.249 87.2202 231.232C87.191 231.216 87.1545 231.19 87.1167 231.154C87.0788 231.118 87.0477 231.079 87.0243 231.042C87.0013 231.005 86.9903 230.978 86.9863 230.966C86.9825 230.956 86.9861 230.963 86.9906 230.992C86.9951 231.023 87 231.073 87 231.146H91C91 230.172 90.7395 229.08 89.8753 228.257C89.0294 227.452 87.9406 227.226 86.984 227.226V231.226Z" fill="white"/>
<rect x="100" y="200" width="22" height="452" fill="white"/>
<defs>
<filter id="filter0_i" x="73.8594" y="200.9" width="304.5" height="454.1" filterUnits="userSpaceOnUse" color-interpolation-filters="sRGB">
<feFlood flood-opacity="0" result="BackgroundImageFix"/>
<feBlend mode="normal" in="SourceGraphic" in2="BackgroundImageFix" result="shape"/>
<feColorMatrix in="SourceAlpha" type="matrix" values="0 0 0 0 0 0 0 0 0 0 0 0 0 0 0 0 0 0 127 0" result="hardAlpha"/>
<feOffset dy="4"/>
<feGaussianBlur stdDeviation="2"/>
<feComposite in2="hardAlpha" operator="arithmetic" k2="-1" k3="1"/>
<feColorMatrix type="matrix" values="0 0 0 0 0 0 0 0 0 0 0 0 0 0 0 0 0 0 0.25 0"/>
<feBlend mode="normal" in2="shape" result="effect1_innerShadow"/>
</filter>
<filter id="filter1_i" x="18" y="201" width="88" height="454" filterUnits="userSpaceOnUse" color-interpolation-filters="sRGB">
<feFlood flood-opacity="0" result="BackgroundImageFix"/>
<feBlend mode="normal" in="SourceGraphic" in2="BackgroundImageFix" result="shape"/>
<feColorMatrix in="SourceAlpha" type="matrix" values="0 0 0 0 0 0 0 0 0 0 0 0 0 0 0 0 0 0 127 0" result="hardAlpha"/>
<feOffset dy="4"/>
<feGaussianBlur stdDeviation="2"/>
<feComposite in2="hardAlpha" operator="arithmetic" k2="-1" k3="1"/>
<feColorMatrix type="matrix" values="0 0 0 0 0 0 0 0 0 0 0 0 0 0 0 0 0 0 0.25 0"/>
<feBlend mode="normal" in2="shape" result="effect1_innerShadow"/>
</filter>
</defs>
</svg>
